<?xml version="1.0" encoding="iso-8859-1"?>
<!-- Generator: Adobe Illustrator 19.0.0, SVG Export Plug-In . SVG Version: 6.00 Build 0)  -->
<svg version="1.1" id="Capa_1" xmlns="http://www.w3.org/2000/svg" xmlns:xlink="http://www.w3.org/1999/xlink" x="0px" y="0px"
	 viewBox="0 0 511.999 511.999" style="enable-background:new 0 0 511.999 511.999;" xml:space="preserve">
<polygon style="fill:#FF4E1E;" points="406.453,8.316 431.13,58.169 384.435,58.169 372.22,82.514 315.056,49.861 356.6,33.243 
	339.982,8.316 398.144,24.934 "/>
<polygon style="fill:#F8E48C;" points="372.22,82.514 384.435,58.169 431.13,58.169 454.478,93.15 431.13,104.865 454.478,328.54 
	349.371,410.299 326.023,433.647 323.364,503.69 298.438,503.69 290.96,433.647 185.936,386.951 162.505,328.54 115.809,328.54 
	57.481,351.887 57.481,188.369 139.157,130.041 220.916,130.041 267.612,223.433 337.739,223.433 361.087,104.865 "/>
<polygon style="fill:#E59B5E;" points="338.154,262.733 321.536,337.513 230.139,337.513 205.212,295.969 163.668,295.969 
	138.742,246.116 "/>
<path d="M462.787,327.675l-22.799-217.966l18.221-9.14c4.096-2.061,5.75-7.054,3.689-11.159c-0.15-0.299-0.324-0.598-0.507-0.872
	l-23.057-34.54L413.898,4.635c-1.396-2.825-4.271-4.62-7.428-4.628l0,0c-3.149,0-6.024,1.778-7.428,4.595l-5.218,10.444
	L342.309,0.323c-4.412-1.263-9.015,1.288-10.278,5.7c-0.673,2.351-0.283,4.877,1.08,6.905l10.943,16.402l-32.081,12.812
	c-4.271,1.687-6.356,6.514-4.67,10.785c0.698,1.761,1.978,3.24,3.631,4.171l50.368,28.774l-7.652,15.313
	c-0.332,0.665-0.573,1.371-0.715,2.102l-22.027,111.837h-58.162l-44.394-88.797c-1.404-2.817-4.287-4.595-7.436-4.595h-81.759
	c-1.728,0-3.415,0.54-4.827,1.545l-81.676,58.328c-2.185,1.562-3.481,4.08-3.481,6.763v163.518c0,4.586,3.722,8.309,8.309,8.309
	c1.055,0,2.11-0.199,3.091-0.598l56.841-22.75h39.475l21.337,53.177c0.806,2.002,2.36,3.614,4.337,4.495l100.645,44.776
	l6.971,65.274c0.449,4.221,4.013,7.428,8.259,7.428h24.927c4.47,0,8.143-3.531,8.309-7.993l2.493-66.787l20.681-20.681
	l104.692-81.427C461.84,333.367,463.069,330.55,462.787,327.675z M334.124,51.182l25.566-10.22
	c4.262-1.703,6.331-6.539,4.628-10.802c-0.216-0.54-0.482-1.047-0.806-1.529l-4.071-6.115l36.418,10.403
	c3.847,1.105,7.935-0.69,9.721-4.271l0.831-1.662l11.333,22.874h-33.31c-3.141,0-6.016,1.778-7.428,4.586l-8.259,16.518
	L334.124,51.182z M344.269,403.735c-0.274,0.216-0.532,0.449-0.773,0.69l-23.348,23.348c-1.479,1.479-2.343,3.465-2.426,5.559
	l-2.36,62.051h-9.455l-6.647-62.624c-0.316-2.95-2.177-5.5-4.886-6.705l-101.983-45.333l-22.176-55.287
	c-1.263-3.149-4.321-5.21-7.711-5.21h-46.696c-1.055,0-2.102,0.199-3.083,0.598L65.79,339.607V192.64l76.026-54.29h73.949
	l44.394,88.797c1.404,2.817,4.287,4.595,7.436,4.595h70.127c3.972,0,7.387-2.808,8.151-6.705l23.132-117.471l20.539-41.087h37.124
	l15.679,23.431l-14.956,7.478c-3.099,1.554-4.902,4.861-4.537,8.309l22.874,219.088L344.269,403.735z"/>
<path d="M338.844,254.425l-199.413-16.618c-4.57-0.382-8.591,3.008-8.974,7.586c-0.125,1.521,0.166,3.049,0.848,4.412l24.927,49.853
	c1.404,2.825,4.279,4.62,7.436,4.62h36.841l22.509,37.514c1.504,2.501,4.204,4.03,7.121,4.03h91.397
	c3.897,0,7.262-2.709,8.109-6.506l16.618-74.78c1.014-4.478-1.795-8.924-6.273-9.937
	C339.617,254.516,339.234,254.458,338.844,254.425z M314.889,329.204h-80.048l-22.509-37.514c-1.504-2.501-4.204-4.03-7.121-4.03
	h-36.409l-16.019-32.031l175.192,14.582L314.889,329.204z"/>
<g>
</g>
<g>
</g>
<g>
</g>
<g>
</g>
<g>
</g>
<g>
</g>
<g>
</g>
<g>
</g>
<g>
</g>
<g>
</g>
<g>
</g>
<g>
</g>
<g>
</g>
<g>
</g>
<g>
</g>
</svg>
