<?xml version="1.0" encoding="iso-8859-1"?>
<!-- Generator: Adobe Illustrator 19.0.0, SVG Export Plug-In . SVG Version: 6.00 Build 0)  -->
<svg version="1.1" id="Capa_1" xmlns="http://www.w3.org/2000/svg" xmlns:xlink="http://www.w3.org/1999/xlink" x="0px" y="0px"
	 viewBox="0 0 512 512" style="enable-background:new 0 0 512 512;" xml:space="preserve">
<g>
	<path style="fill:#A4C2F7;" d="M459.026,243.438L256,86.933L52.974,243.438c-10.475,8.075-25.377,6.837-34.376-2.856l0,0
		c-4.873-5.249-7.324-12.299-6.757-19.439c0.567-7.14,4.101-13.715,9.741-18.128L256,17.067l234.418,185.949
		c5.641,4.413,9.174,10.988,9.741,18.128c0.567,7.14-1.883,14.19-6.757,19.439l0,0C484.403,250.275,469.501,251.513,459.026,243.438
		z"/>
	<polygon style="fill:#FFFFFF;" points="256,86.938 59.733,238.225 59.733,238.933 59.733,494.933 264.533,494.933 	"/>
	<polygon style="fill:#A4C2F7;" points="256,86.938 256,494.933 452.267,494.933 452.267,238.933 452.267,238.225 	"/>
	<polygon style="fill:#E3E7F2;" points="256,86.938 85.333,238.225 85.333,238.933 85.333,494.933 426.667,494.933 426.667,238.933 
		426.667,238.225 	"/>
	<g>
		<rect x="128" y="230.4" style="fill:#A4C2F7;" width="102.4" height="68.267"/>
		<rect x="128" y="349.867" style="fill:#A4C2F7;" width="102.4" height="85.333"/>
		<rect x="281.6" y="230.4" style="fill:#A4C2F7;" width="102.4" height="68.267"/>
	</g>
	<rect x="281.6" y="349.867" style="fill:#7FACFA;" width="102.4" height="145.067"/>
	<rect x="281.6" y="349.867" style="fill:#A4C2F7;" width="76.8" height="145.067"/>
	<g>
		<path style="fill:#428DFF;" d="M230.4,307.2H128c-2.263,0.001-4.434-0.898-6.035-2.499c-1.6-1.6-2.499-3.771-2.499-6.035V230.4
			c-0.001-2.263,0.898-4.434,2.499-6.035c1.6-1.6,3.771-2.499,6.035-2.499h102.4c2.263-0.001,4.434,0.898,6.035,2.499
			c1.6,1.6,2.499,3.771,2.499,6.035v68.267c0.001,2.263-0.898,4.434-2.499,6.035C234.834,306.302,232.663,307.201,230.4,307.2
			L230.4,307.2z M136.533,290.133h85.333v-51.2h-85.333V290.133z"/>
		<path style="fill:#428DFF;" d="M230.4,443.733H128c-2.263,0.001-4.434-0.898-6.035-2.499s-2.499-3.771-2.499-6.035v-85.333
			c-0.001-2.263,0.898-4.434,2.499-6.035s3.771-2.499,6.035-2.499h102.4c2.263-0.001,4.434,0.898,6.035,2.499
			c1.6,1.6,2.499,3.771,2.499,6.035V435.2c0.001,2.263-0.898,4.434-2.499,6.035C234.834,442.835,232.663,443.734,230.4,443.733
			L230.4,443.733z M136.533,426.667h85.333V358.4h-85.333V426.667z"/>
		<path style="fill:#428DFF;" d="M384,307.2H281.6c-2.263,0.001-4.434-0.898-6.035-2.499c-1.6-1.6-2.499-3.771-2.499-6.035V230.4
			c-0.001-2.263,0.898-4.434,2.499-6.035c1.6-1.6,3.771-2.499,6.035-2.499H384c2.263-0.001,4.434,0.898,6.035,2.499
			c1.6,1.6,2.499,3.771,2.499,6.035v68.267c0.001,2.263-0.898,4.434-2.499,6.035C388.434,306.302,386.263,307.201,384,307.2
			L384,307.2z M290.133,290.133h85.333v-51.2h-85.333V290.133z"/>
		<path style="fill:#428DFF;" d="M474.675,257.35c-7.554-0.007-14.891-2.523-20.858-7.154L256,97.708L58.183,250.196
			c-14.888,11.478-36.255,8.753-47.785-6.094c-11.53-14.847-8.88-36.224,5.927-47.806L250.7,10.383c3.103-2.467,7.497-2.467,10.6,0
			l234.417,185.95c11.423,8.997,15.902,24.239,11.161,37.985S489.216,257.307,474.675,257.35z M256,78.4
			c1.885-0.001,3.716,0.624,5.208,1.775l203.025,156.504l0,0c7.441,5.744,18.127,4.384,23.893-3.04
			c5.766-7.424,4.439-18.114-2.968-23.902L256,27.958L26.883,209.7c-7.45,5.767-8.815,16.481-3.048,23.931
			c5.767,7.45,16.481,8.815,23.931,3.048L250.792,80.175C252.284,79.024,254.115,78.399,256,78.4z"/>
		<path style="fill:#428DFF;" d="M452.267,503.467H59.733c-2.263,0.001-4.434-0.898-6.035-2.499s-2.499-3.771-2.499-6.035V358.4
			c0-4.713,3.821-8.533,8.533-8.533s8.533,3.82,8.533,8.533v128h375.467V242.421L256,97.708L68.267,242.421v30.646
			c0,4.713-3.821,8.533-8.533,8.533s-8.533-3.82-8.533-8.533v-34.133c-0.01-2.85,1.2-5.568,3.325-7.467L250.792,80.175
			c3.069-2.367,7.348-2.367,10.417,0l196.267,151.292c2.097,1.614,3.326,4.112,3.325,6.758v256.708
			c0.001,2.263-0.898,4.434-2.499,6.035C456.701,502.568,454.53,503.467,452.267,503.467z"/>
		<path style="fill:#428DFF;" d="M384,503.467H281.6c-2.263,0.001-4.434-0.898-6.035-2.499c-1.6-1.6-2.499-3.771-2.499-6.035
			V349.867c-0.001-2.263,0.898-4.434,2.499-6.035c1.6-1.6,3.771-2.499,6.035-2.499H384c2.263-0.001,4.434,0.898,6.035,2.499
			c1.6,1.6,2.499,3.771,2.499,6.035v145.067c0.001,2.263-0.898,4.434-2.499,6.035C388.434,502.568,386.263,503.467,384,503.467
			L384,503.467z M290.133,486.4h85.333v-128h-85.333V486.4z"/>
		<path style="fill:#428DFF;" d="M8.533,503.467c-2.263,0.001-4.434-0.898-6.035-2.499s-2.499-3.771-2.499-6.035v-76.8
			c0-4.713,3.821-8.533,8.533-8.533s8.533,3.821,8.533,8.533v76.8c0.001,2.263-0.898,4.434-2.499,6.035
			S10.797,503.467,8.533,503.467L8.533,503.467z"/>
		<path style="fill:#428DFF;" d="M34.133,503.467c-2.263,0.001-4.434-0.898-6.035-2.499c-1.6-1.6-2.499-3.771-2.499-6.035v-76.8
			c0-4.713,3.821-8.533,8.533-8.533s8.533,3.821,8.533,8.533v76.8c0.001,2.263-0.898,4.434-2.499,6.035
			C38.568,502.568,36.397,503.467,34.133,503.467L34.133,503.467z"/>
		<path style="fill:#428DFF;" d="M477.867,503.467c-2.263,0.001-4.434-0.898-6.035-2.499c-1.6-1.6-2.499-3.771-2.499-6.035v-76.8
			c0-4.713,3.821-8.533,8.533-8.533s8.533,3.821,8.533,8.533v76.8c0.001,2.263-0.898,4.434-2.499,6.035
			C482.301,502.568,480.13,503.467,477.867,503.467L477.867,503.467z"/>
		<path style="fill:#428DFF;" d="M503.467,503.467c-2.263,0.001-4.434-0.898-6.035-2.499s-2.499-3.771-2.499-6.035v-76.8
			c0-4.713,3.821-8.533,8.533-8.533c4.713,0,8.533,3.821,8.533,8.533v76.8c0.001,2.263-0.898,4.434-2.499,6.035
			C507.901,502.568,505.73,503.467,503.467,503.467L503.467,503.467z"/>
		<path style="fill:#428DFF;" d="M59.733,443.733h-51.2C3.821,443.733,0,439.913,0,435.2s3.821-8.533,8.533-8.533h51.2
			c4.713,0,8.533,3.82,8.533,8.533S64.446,443.733,59.733,443.733z"/>
		<path style="fill:#428DFF;" d="M59.733,486.4h-51.2C3.821,486.4,0,482.58,0,477.867s3.821-8.533,8.533-8.533h51.2
			c4.713,0,8.533,3.821,8.533,8.533S64.446,486.4,59.733,486.4z"/>
		<path style="fill:#428DFF;" d="M503.467,443.733h-51.2c-4.713,0-8.533-3.821-8.533-8.533s3.82-8.533,8.533-8.533h51.2
			c4.713,0,8.533,3.82,8.533,8.533S508.18,443.733,503.467,443.733z"/>
		<path style="fill:#428DFF;" d="M503.467,486.4h-51.2c-4.713,0-8.533-3.82-8.533-8.533s3.82-8.533,8.533-8.533h51.2
			c4.713,0,8.533,3.821,8.533,8.533S508.18,486.4,503.467,486.4z"/>
		<path style="fill:#428DFF;" d="M179.2,443.733c-2.263,0.001-4.434-0.898-6.035-2.499c-1.6-1.6-2.499-3.771-2.499-6.035v-85.333
			c0-4.713,3.821-8.533,8.533-8.533s8.533,3.821,8.533,8.533V435.2c0.001,2.263-0.898,4.434-2.499,6.035
			C183.634,442.835,181.463,443.734,179.2,443.733L179.2,443.733z"/>
		<path style="fill:#428DFF;" d="M230.4,401.067H128c-4.713,0-8.533-3.82-8.533-8.533S123.287,384,128,384h102.4
			c4.713,0,8.533,3.82,8.533,8.533S235.113,401.067,230.4,401.067z"/>
		<path style="fill:#428DFF;" d="M230.4,264.533H128c-4.713,0-8.533-3.821-8.533-8.533c0-4.713,3.821-8.533,8.533-8.533h102.4
			c4.713,0,8.533,3.821,8.533,8.533C238.933,260.713,235.113,264.533,230.4,264.533z"/>
		<path style="fill:#428DFF;" d="M384,281.6H281.6c-4.713,0-8.533-3.82-8.533-8.533s3.82-8.533,8.533-8.533H384
			c4.713,0,8.533,3.82,8.533,8.533S388.713,281.6,384,281.6z"/>
		<path style="fill:#428DFF;" d="M59.733,332.8c-2.263,0.001-4.434-0.898-6.035-2.499c-1.6-1.6-2.499-3.771-2.499-6.035V307.2
			c0-4.713,3.821-8.533,8.533-8.533s8.533,3.82,8.533,8.533v17.067c0.001,2.263-0.898,4.434-2.499,6.035
			C64.168,331.902,61.997,332.801,59.733,332.8L59.733,332.8z"/>
	</g>
</g>
<g>
</g>
<g>
</g>
<g>
</g>
<g>
</g>
<g>
</g>
<g>
</g>
<g>
</g>
<g>
</g>
<g>
</g>
<g>
</g>
<g>
</g>
<g>
</g>
<g>
</g>
<g>
</g>
<g>
</g>
</svg>
