<?xml version="1.0" encoding="UTF-8"?>
<svg width="256px" height="256px" viewBox="0 0 256 256" version="1.1" xmlns="http://www.w3.org/2000/svg" xmlns:xlink="http://www.w3.org/1999/xlink">
    <!-- Generator: Sketch 50.2 (55047) - http://www.bohemiancoding.com/sketch -->
    <title>artboard__main</title>
    <desc>Created with Sketch.</desc>
    <defs>
        <path d="M63.75,0 L191.25,9.47390314e-15 C226.458153,2.98090713e-15 255,28.653776 255,64 L255,192 C255,227.346224 226.458153,256 191.25,256 L63.75,256 C28.5418472,256 4.31175516e-15,227.346224 0,192 L0,64 C-4.31175516e-15,28.653776 28.5418472,6.49299601e-15 63.75,0 Z" id="path-1"></path>
        <path d="M60.9778609,91 C58.6350133,101.170343 59.0242046,111.271204 59.0242046,122.05418 C59.0242046,129.242831 60.3348553,136.837637 62.9561567,144.838597 C65.588371,151.416827 68.925015,157.066062 72.9660884,161.786302 C77.0071619,166.506542 81.9014195,170.168993 87.6488613,172.773654 L99.6841845,176.185844 C96.2689731,177.986539 93.9007659,179.378489 92.5795629,180.361696 C90.5977585,181.836505 87.5466837,184.762184 86.8040242,187.744363 C86.0613646,190.726541 86.7705219,192.137946 88.4887289,194.999972 C89.0528185,195.939579 91.5238291,197.846275 95.9017608,200.72006 C98.4704146,202.340881 102.915059,203.784338 109.235693,205.050431 C115.556328,206.316523 122.189128,206.316523 129.134093,205.050431 C135.356905,203.280886 141.240873,200.636222 146.785999,197.11644 C152.331124,193.596658 156.805371,188.705555 160.20874,182.443133 C163.402913,175.345684 165,168.047451 165,160.548431 C165,153.049412 163.402913,145.447853 160.20874,137.743753 C156.828632,130.890649 153.119094,125.660791 149.080125,122.05418 C143.021672,116.644263 138.394179,115.305003 132.753386,114.126888 C127.112593,112.948773 120.828817,113.341478 110.304334,114.126888 C105.365613,114.604318 88.1559122,115.928263 81.4343079,114.909916 C74.7127036,113.89157 73.5206062,113.046395 69.1246885,107.888029 C65.8691969,104.067891 62.5477769,95.7790535 60.9778609,91 Z" id="path-3"></path>
        <filter x="-1.9%" y="-1.7%" width="103.8%" height="103.5%" filterUnits="objectBoundingBox" id="filter-4">
            <feGaussianBlur stdDeviation="1.5" in="SourceAlpha" result="shadowBlurInner1"></feGaussianBlur>
            <feOffset dx="0" dy="1" in="shadowBlurInner1" result="shadowOffsetInner1"></feOffset>
            <feComposite in="shadowOffsetInner1" in2="SourceAlpha" operator="arithmetic" k2="-1" k3="1" result="shadowInnerInner1"></feComposite>
            <feColorMatrix values="0 0 0 0 0   0 0 0 0 0   0 0 0 0 0  0 0 0 0.5 0" type="matrix" in="shadowInnerInner1"></feColorMatrix>
        </filter>
        <path d="M203.134869,89.4145845 L227.043435,80.6151907 L213.46673,104.201817 L230,108.278257 C221.044956,113.235353 216.567434,115.7139 216.567434,115.7139 C216.567434,115.7139 220.256481,121.000559 219.325951,136.657007 C218.705598,147.094639 216.752524,157.261712 213.46673,167.158226 C207.004402,187.79181 197.843455,203.746984 185.983889,215.023748 C168.19454,231.938895 159.097535,235.600552 137.937063,239.017246 C115.771721,242.596192 92.8882891,235.529155 85.614763,231.752476 C71.3974577,224.370333 65.5308524,219.007126 59.5907102,213.391352 C55.6306155,209.647503 50.3034,203.335872 43.609064,194.45646 C37.8445834,185.506998 33.8911492,178.494331 31.7487612,173.418459 C28.5351793,165.804651 26.7161691,162.454249 24.3275723,148.773611 C21.9389754,135.092972 22.0001452,130.93474 22.0001452,121.573121 C22.0001452,115.332042 22.7759542,105.675635 24.3275723,92.6038995 C27.7588553,100.71658 31.6435335,105.941366 35.9816068,108.278257 C38.3621276,109.560628 41.1871867,110.086983 44.4567843,109.857322 C46.2492238,109.731419 50.5710178,108.158451 54.7571014,105.42899 C54.404144,109.737297 54.0824633,112.89997 54.080695,114.565489 C54.0767961,118.237745 54.0602019,120.722481 54.080695,122.804615 C54.105754,125.350646 55.0435888,135.891064 58.8023005,146.43893 C62.3173286,156.302959 72.0755267,166.897166 75.4544951,169.540946 C80.1159537,173.188174 85.2732319,176.067272 89.6681971,176.646332 C84.0024113,181.618797 80.6600413,185.694004 82.2513913,190.874808 C82.6919319,192.309033 85.7157165,198.226745 92.0852985,201.803256 C92.6320343,202.110248 99.7069195,206.447432 109.246112,207.950105 C117.313229,209.220888 126.911707,208.656073 130.793868,207.950105 C132.61884,207.618235 149.445185,202.328506 156.139817,194.45646 C157.885798,192.403404 160.965305,189.32298 163.608963,184.247372 C165.871508,179.90347 168.614475,173.996293 169.53601,167.158226 C171.534309,152.330256 166.274452,139.535294 165.109868,136.657007 C163.977243,133.857709 161.116414,127.744331 157.069341,122.804615 C153.051801,117.900947 147.65364,114.582711 144.574562,112.956699 C140.454036,110.780713 135.973043,109.604972 130.793868,108.939432 C125.614693,108.273892 122.686094,108.248758 118.069804,108.604074 C113.453515,108.95939 106.755413,109.781672 99.5895803,110.516147 C105.30996,107.082397 110.872242,102.120352 113.893202,97.8787789 C116.914162,93.6372055 117.952631,89.0932751 120.147706,81.7355556 C124.128386,75.0766354 125.427186,73.1553645 130.793868,69.6071773 C136.347171,65.9356055 143.812266,64.615513 146.777308,63.6515751 C149.74235,62.6876371 166.702551,62.3247056 175.112456,65.9715563 C183.52236,69.618407 190.059863,76.2171328 203.134869,89.4145845 Z" id="path-5"></path>
        <filter x="-1.0%" y="-1.1%" width="101.9%" height="102.3%" filterUnits="objectBoundingBox" id="filter-6">
            <feGaussianBlur stdDeviation="1.5" in="SourceAlpha" result="shadowBlurInner1"></feGaussianBlur>
            <feOffset dx="0" dy="1" in="shadowBlurInner1" result="shadowOffsetInner1"></feOffset>
            <feComposite in="shadowOffsetInner1" in2="SourceAlpha" operator="arithmetic" k2="-1" k3="1" result="shadowInnerInner1"></feComposite>
            <feColorMatrix values="0 0 0 0 0   0 0 0 0 0   0 0 0 0 0  0 0 0 0.5 0" type="matrix" in="shadowInnerInner1"></feColorMatrix>
        </filter>
        <path d="M201.84783,86 C197.765836,82.2571942 195.656425,79.2554779 193.165255,76.8960222 C188.764271,72.7277302 187.953387,71.2743507 181.924057,67.9514597 C177.904504,65.736199 173.858956,64.0233584 169.787413,62.8129378 L155.882199,60.8060878 C153.973602,47.6104482 153.516529,38.9786353 154.51098,34.9106492 C155.185804,32.1501592 156.454644,29.3984691 158.3175,26.6555789 C161.065817,22.8649156 163.991753,20.1465391 167.095308,18.5004495 C171.75064,16.031315 174.471601,15.68256 178.002856,16.2146938 C182.246912,16.8542412 185.793569,19.8062062 187.424588,21.679713 C188.670186,23.1104977 190.661307,25.6961921 191.845512,29.7189979 C192.318631,31.3262086 192.758545,34.2495141 193.165255,38.4889143 C195.658545,36.6912676 197.654938,35.4985125 199.154432,34.9106492 C200.349342,34.4421957 205.44017,32.2898407 209.483765,33.9245984 C213.051643,35.3670317 215.407535,39.4137868 215.407535,42.0153256 C215.407535,45.7152918 213.984841,49.4669982 211.139453,53.2704449 C219.12952,51.5305978 224.05508,52.1034745 225.916132,54.989075 C228.707709,59.3174758 229.209081,64.9577888 224.187258,72.1252813 C220.839376,76.9036096 209.648954,81.9199367 201.84783,86 Z" id="path-7"></path>
        <filter x="-2.7%" y="-2.9%" width="105.4%" height="105.7%" filterUnits="objectBoundingBox" id="filter-8">
            <feGaussianBlur stdDeviation="1.5" in="SourceAlpha" result="shadowBlurInner1"></feGaussianBlur>
            <feOffset dx="0" dy="1" in="shadowBlurInner1" result="shadowOffsetInner1"></feOffset>
            <feComposite in="shadowOffsetInner1" in2="SourceAlpha" operator="arithmetic" k2="-1" k3="1" result="shadowInnerInner1"></feComposite>
            <feColorMatrix values="0 0 0 0 0   0 0 0 0 0   0 0 0 0 0  0 0 0 0.5 0" type="matrix" in="shadowInnerInner1"></feColorMatrix>
        </filter>
    </defs>
    <g id="artboard__main" stroke="none" stroke-width="1" fill="none" fill-rule="evenodd">
        <mask id="mask-2" fill="white">
            <use xlink:href="#path-1"></use>
        </mask>
        <path stroke="#000000" d="M63.75,0.5 C28.8184286,0.5 0.5,28.9294813 0.5,64 L0.5,192 C0.5,227.070519 28.8184286,255.5 63.75,255.5 L191.25,255.5 C226.181571,255.5 254.5,227.070519 254.5,192 L254.5,64 C254.5,28.9294813 226.181571,0.5 191.25,0.5 L63.75,0.5 Z"></path>
        <g id="Group" mask="url(#mask-2)" fill-opacity="0.5">
            <polygon id="Rectangle-2" fill="#FFFFCA" points="0 0 127.732365 128.170457 255.46473 256.340915 0 256.340915"></polygon>
            <polygon id="Rectangle-3" fill="#A7E1FF" points="0 0 255.46473 0 255.46473 256.340915 127.732365 128.170457"></polygon>
        </g>
        <g id="Path-3" mask="url(#mask-2)">
            <use fill="#FFBDC5" fill-rule="evenodd" xlink:href="#path-3"></use>
            <use fill="black" fill-opacity="1" filter="url(#filter-4)" xlink:href="#path-3"></use>
        </g>
        <g id="Path-2" mask="url(#mask-2)">
            <use fill="#A7E1FF" fill-rule="evenodd" xlink:href="#path-5"></use>
            <use fill="black" fill-opacity="1" filter="url(#filter-6)" xlink:href="#path-5"></use>
        </g>
        <path d="M186,89.723117 C183.259573,88.8592436 181.270494,88.6273586 180.032763,89.0274621 C177.247868,89.9276949 176.603689,91.514279 175.599574,93.0862849 C174.930163,94.1342889 174.536948,95.9551383 174.630404,98.219657 C173.837125,99.5152283 172.88194,100 172.003966,100 C170.687006,100 169.999604,99.7367413 169.333201,98.219657 C168.888933,97.2082674 168.888933,95.3643814 169.333201,92.687999 C169.973672,90.3315527 171.068177,88.4411449 172.616717,87.0167756 C174.165257,85.5924063 174.855068,84.7660469 177.5,84.2329653 C180.144932,83.6998838 180.749415,84.0728874 182.870048,85.4426048 C184.283804,86.3557497 185.327121,87.7825871 186,89.723117 Z" id="Path-4" fill="#7F7F7F" mask="url(#mask-2)"></path>
        <g id="Path" mask="url(#mask-2)">
            <use fill="#FFBDC5" fill-rule="evenodd" xlink:href="#path-7"></use>
            <use fill="black" fill-opacity="1" filter="url(#filter-8)" xlink:href="#path-7"></use>
        </g>
    </g>
</svg>