<?xml version="1.0" encoding="UTF-8"?>
<svg width="256px" height="256px" viewBox="0 0 256 256" version="1.1" xmlns="http://www.w3.org/2000/svg" xmlns:xlink="http://www.w3.org/1999/xlink">
    <!-- Generator: Sketch 50.2 (55047) - http://www.bohemiancoding.com/sketch -->
    <title>nicer00ster</title>
    <desc>Created with Sketch.</desc>
    <defs>
        <path d="M63.75,0 L191.25,9.47390314e-15 C226.458153,2.98090713e-15 255,28.653776 255,64 L255,192 C255,227.346224 226.458153,256 191.25,256 L63.75,256 C28.5418472,256 4.31175516e-15,227.346224 0,192 L0,64 C-4.31175516e-15,28.653776 28.5418472,6.49299601e-15 63.75,0 Z" id="path-1"></path>
    </defs>
    <g id="nicer00ster" stroke="none" stroke-width="1" fill="none" fill-rule="evenodd">
        <mask id="mask-2" fill="white">
            <use xlink:href="#path-1"></use>
        </mask>
        <path stroke="#000000" d="M63.75,0.5 C28.8184286,0.5 0.5,28.9294813 0.5,64 L0.5,192 C0.5,227.070519 28.8184286,255.5 63.75,255.5 L191.25,255.5 C226.181571,255.5 254.5,227.070519 254.5,192 L254.5,64 C254.5,28.9294813 226.181571,0.5 191.25,0.5 L63.75,0.5 Z"></path>
        <g id="Group" mask="url(#mask-2)" fill-opacity="0.5">
            <polygon id="Rectangle-2" fill="#FFFFCA" points="0 0 127.732365 128.170457 255.46473 256.340915 0 256.340915"></polygon>
            <polygon id="Rectangle-3" fill="#FFBDC5" points="0 0 255.46473 0 255.46473 256.340915 127.732365 128.170457"></polygon>
        </g>
        <path d="M66.7012772,84.5384343 C64.3584296,94.7087769 63.2209051,108.76846 63.2209051,119.551436 C63.2209051,126.740087 64.3810291,133.397448 66.7012772,139.523518 C71.2229789,148.563453 74.7404111,154.55119 77.2535738,157.48673 C81.2946472,162.20697 86.4212838,165.815599 92.6334833,168.312616 L109.235693,175.343121 C102.630852,179.07357 98.66783,181.430398 97.346627,182.413604 C95.3648226,183.888414 93.1795647,190.145646 94.8977717,193.007672 C96.6159787,195.869698 102.526937,198.479094 112.007889,200.378232 C121.488841,202.277371 138.427482,198.596137 145.342646,193.007672 C148.904479,190.129189 157.027347,179.347711 159.932723,167.105534 C162.668024,155.579987 159.065276,142.62055 154.595771,136.756344 C145.378859,124.663311 142.690172,123.097112 133.083162,119.551436 C123.476152,116.00576 99.3550876,120.569782 92.6334833,119.551436 C85.9118791,118.53309 73.7694509,111.04211 71.1354,104.246737 C68.4520174,97.3240963 67.4935175,86.9501295 66.7012772,84.5384343 Z" id="Path-3" fill="#000000" mask="url(#mask-2)"></path>
        <path d="M203.134869,89.4145845 L227.043435,80.6151907 L213.46673,104.201817 L230,108.278257 C221.044956,113.235353 216.567434,115.7139 216.567434,115.7139 C216.567434,115.7139 220.256481,121.000559 219.325951,136.657007 C218.705598,147.094639 216.752524,157.261712 213.46673,167.158226 C207.004402,187.79181 197.843455,203.746984 185.983889,215.023748 C168.19454,231.938895 159.097535,235.600552 137.937063,239.017246 C115.771721,242.596192 92.8882891,235.529155 85.614763,231.752476 C71.3974577,224.370333 65.5308524,219.007126 59.5907102,213.391352 C55.6306155,209.647503 50.3034,203.335872 43.609064,194.45646 C37.8445834,185.506998 33.8911492,178.494331 31.7487612,173.418459 C28.5351793,165.804651 26.7161691,162.454249 24.3275723,148.773611 C21.9389754,135.092972 22.0001452,130.93474 22.0001452,121.573121 C22.0001452,115.332042 22.7759542,105.675635 24.3275723,92.6038995 C27.7588553,100.71658 31.6435335,105.941366 35.9816068,108.278257 C38.3621276,109.560628 41.1871867,110.086983 44.4567843,109.857322 C46.2492238,109.731419 50.5710178,108.158451 54.7571014,105.42899 C54.404144,109.737297 54.0824633,112.89997 54.080695,114.565489 C54.0767961,118.237745 54.0602019,120.722481 54.080695,122.804615 C54.105754,125.350646 55.0435888,135.891064 58.8023005,146.43893 C62.3173286,156.302959 72.0755267,166.897166 75.4544951,169.540946 C80.1159537,173.188174 85.2732319,176.067272 89.6681971,176.646332 C84.0024113,181.618797 80.6600413,185.694004 82.2513913,190.874808 C82.6919319,192.309033 85.7157165,198.226745 92.0852985,201.803256 C92.6320343,202.110248 99.7069195,206.447432 109.246112,207.950105 C117.313229,209.220888 126.911707,208.656073 130.793868,207.950105 C132.61884,207.618235 149.445185,202.328506 156.139817,194.45646 C157.885798,192.403404 160.965305,189.32298 163.608963,184.247372 C165.871508,179.90347 168.614475,173.996293 169.53601,167.158226 C171.534309,152.330256 166.274452,139.535294 165.109868,136.657007 C163.977243,133.857709 161.116414,127.744331 157.069341,122.804615 C153.051801,117.900947 147.65364,114.582711 144.574562,112.956699 C140.454036,110.780713 135.973043,109.604972 130.793868,108.939432 C125.614693,108.273892 122.686094,108.248758 118.069804,108.604074 C113.453515,108.95939 106.755413,109.781672 99.5895803,110.516147 C105.30996,107.082397 110.872242,102.120352 113.893202,97.8787789 C116.914162,93.6372055 117.952631,89.0932751 120.147706,81.7355556 C124.128386,75.0766354 125.427186,73.1553645 130.793868,69.6071773 C136.347171,65.9356055 143.812266,64.615513 146.777308,63.6515751 C149.74235,62.6876371 166.702551,62.3247056 175.112456,65.9715563 C183.52236,69.618407 190.059863,76.2171328 203.134869,89.4145845 Z" id="Path-2" fill="#000000" mask="url(#mask-2)"></path>
        <path d="M186,89.723117 C183.259573,88.8592436 181.270494,88.6273586 180.032763,89.0274621 C177.247868,89.9276949 176.603689,91.514279 175.599574,93.0862849 C174.930163,94.1342889 174.536948,95.9551383 174.630404,98.219657 C173.837125,99.5152283 172.88194,100 172.003966,100 C170.687006,100 169.999604,99.7367413 169.333201,98.219657 C168.888933,97.2082674 168.888933,95.3643814 169.333201,92.687999 C169.973672,90.3315527 171.068177,88.4411449 172.616717,87.0167756 C174.165257,85.5924063 174.855068,84.7660469 177.5,84.2329653 C180.144932,83.6998838 180.749415,84.0728874 182.870048,85.4426048 C184.283804,86.3557497 185.327121,87.7825871 186,89.723117 Z" id="Path-4" fill="#FFFFFF" mask="url(#mask-2)"></path>
        <path d="M201.36447,82.2180847 C197.175422,76.9603799 194.250508,73.5450424 192.589728,71.9720719 C190.098558,69.6126162 187.054486,65.9111531 181.025157,62.5882621 C174.995827,59.265371 173.548472,58.914952 166.782468,57.7573113 C162.271799,56.9855508 157.607624,56.9855508 152.789943,57.7573113 C150.951256,45.9275227 150.529138,37.9786353 151.523589,33.9106492 C152.198413,31.1501592 153.467253,28.3984691 155.330109,25.6555789 C158.078426,21.8649156 161.004361,19.1465391 164.107916,17.5004495 C168.763249,15.031315 171.48421,14.68256 175.015465,15.2146938 C179.259521,15.8542412 182.806178,18.8062062 184.437196,20.679713 C185.682794,22.1104977 187.673916,24.6961921 188.858121,28.7189979 C189.33124,30.3262086 189.771154,33.2495141 190.177863,37.4889143 C192.671154,35.6912676 194.667547,34.4985125 196.167041,33.9106492 C197.361951,33.4421957 202.452779,31.2898407 206.496374,32.9245984 C210.064252,34.3670317 212.420143,38.4137868 212.420143,41.0153256 C212.420143,44.7152918 210.997449,48.4669982 208.152062,52.2704449 C216.142129,50.5305978 221.067689,51.1034745 222.92874,53.989075 C225.720318,58.3174758 226.22169,63.9577888 221.199867,71.1252813 C218.967946,74.3108335 212.356146,78.0084346 201.36447,82.2180847 Z" id="Path" fill="#000000" mask="url(#mask-2)"></path>
    </g>
</svg>