<?xml version="1.0" encoding="iso-8859-1"?>
<!-- Generator: Adobe Illustrator 19.0.0, SVG Export Plug-In . SVG Version: 6.00 Build 0)  -->
<svg version="1.1" id="Capa_1" xmlns="http://www.w3.org/2000/svg" xmlns:xlink="http://www.w3.org/1999/xlink" x="0px" y="0px"
	 viewBox="0 0 512 512" style="enable-background:new 0 0 512 512;" xml:space="preserve">
<g>
	<g transform="translate(1 1)">
		<rect x="92.866" y="50.2" style="fill:#7FACFA;" width="324.267" height="409.6"/>
		
			<linearGradient id="SVGID_1_" gradientUnits="userSpaceOnUse" x1="-49.9298" y1="651.593" x2="-48.7441" y2="650.7283" gradientTransform="matrix(298.6667 0 0 -409.6 14977.5049 266970.4063)">
			<stop  offset="0" style="stop-color:#D4E1F4"/>
			<stop  offset="0.1717" style="stop-color:#D4E1F4"/>
			<stop  offset="0.2" style="stop-color:#D4E1F4"/>
			<stop  offset="0.2001" style="stop-color:#DAE4F4"/>
			<stop  offset="0.2007" style="stop-color:#EBEBF4"/>
			<stop  offset="0.2014" style="stop-color:#F6F1F4"/>
			<stop  offset="0.2023" style="stop-color:#FDF4F4"/>
			<stop  offset="0.205" style="stop-color:#FFF5F4"/>
			<stop  offset="0.2522" style="stop-color:#FFF5F4"/>
			<stop  offset="0.26" style="stop-color:#FFF5F4"/>
			<stop  offset="0.26" style="stop-color:#D4E1F4"/>
			<stop  offset="0.3974" style="stop-color:#D4E1F4"/>
			<stop  offset="0.42" style="stop-color:#D4E1F4"/>
			<stop  offset="0.4201" style="stop-color:#DAE4F4"/>
			<stop  offset="0.4207" style="stop-color:#EBEBF4"/>
			<stop  offset="0.4214" style="stop-color:#F6F1F4"/>
			<stop  offset="0.4223" style="stop-color:#FDF4F4"/>
			<stop  offset="0.425" style="stop-color:#FFF5F4"/>
			<stop  offset="0.4894" style="stop-color:#FFF5F4"/>
			<stop  offset="0.5" style="stop-color:#FFF5F4"/>
			<stop  offset="0.5" style="stop-color:#F9F2F4"/>
			<stop  offset="0.5001" style="stop-color:#E8EBF4"/>
			<stop  offset="0.5003" style="stop-color:#DDE5F4"/>
			<stop  offset="0.5005" style="stop-color:#D6E2F4"/>
			<stop  offset="0.501" style="stop-color:#D4E1F4"/>
			<stop  offset="0.7062" style="stop-color:#D4E1F4"/>
			<stop  offset="0.74" style="stop-color:#D4E1F4"/>
			<stop  offset="0.741" style="stop-color:#FFF5F4"/>
			<stop  offset="0.8346" style="stop-color:#FFF5F4"/>
			<stop  offset="0.85" style="stop-color:#FFF5F4"/>
			<stop  offset="0.851" style="stop-color:#D4E1F4"/>
		</linearGradient>
		<rect x="92.866" y="50.2" style="fill:url(#SVGID_1_);" width="298.667" height="409.6"/>
		<g>
			<path style="fill:#7FACFA;" d="M417.132,434.2v34.133c0.002,9.053-3.593,17.737-9.995,24.139
				c-6.402,6.402-15.085,9.997-24.139,9.995h-256c-9.053,0.002-17.737-3.593-24.139-9.995s-9.997-15.085-9.995-24.139V434.2H417.132
				z"/>
			<path style="fill:#7FACFA;" d="M417.132,41.667V75.8H92.866V41.667c-0.003-9.054,3.593-17.737,9.995-24.139
				s15.085-9.997,24.139-9.995h256c9.053-0.003,17.737,3.593,24.139,9.995S417.135,32.613,417.132,41.667z"/>
		</g>
		<g>
			<path style="fill:#E3E7F2;" d="M391.532,434.2v34.133c0.718,18.098-13.343,33.364-31.439,34.133H124.304
				c-18.095-0.769-32.157-16.036-31.439-34.133V434.2H391.532z"/>
			<path style="fill:#E3E7F2;" d="M391.532,41.667V75.8H92.866V41.667c-0.718-18.098,13.343-33.364,31.439-34.133h235.789
				C378.189,8.302,392.251,23.569,391.532,41.667z"/>
			<path style="fill:#E3E7F2;" d="M205.841,369.604L60.676,255l145.165-114.604c4.786-3.778,7.193-9.822,6.314-15.856
				c-0.879-6.034-4.91-11.14-10.575-13.396c-5.665-2.256-12.103-1.318-16.889,2.46l-162.133,128
				c-0.061,0.048-0.104,0.11-0.165,0.159c-0.457,0.398-0.893,0.819-1.306,1.263c-0.402,0.404-0.827,0.788-1.181,1.222
				c-0.052,0.065-0.118,0.11-0.17,0.176c-0.255,0.323-0.421,0.683-0.649,1.018c-0.38,0.526-0.729,1.073-1.045,1.638
				c-0.252,0.48-0.43,0.979-0.633,1.474c-0.214,0.524-0.447,1.037-0.607,1.578c-0.147,0.544-0.265,1.095-0.356,1.651
				c-0.101,0.524-0.22,1.041-0.271,1.572c-0.053,0.549-0.036,1.094-0.035,1.644c0.001,0.55-0.017,1.095,0.035,1.644
				c0.051,0.531,0.171,1.048,0.271,1.572c0.091,0.556,0.21,1.107,0.356,1.651c0.16,0.541,0.393,1.054,0.607,1.578
				c0.203,0.495,0.381,0.994,0.633,1.474c0.317,0.566,0.666,1.113,1.045,1.638c0.228,0.335,0.394,0.695,0.649,1.018
				c0.047,0.06,0.109,0.099,0.157,0.158c0.74,0.913,1.573,1.748,2.485,2.49c0.066,0.054,0.119,0.127,0.186,0.179l162.125,127.994
				c7.398,5.84,18.13,4.578,23.971-2.821C214.502,386.177,213.239,375.445,205.841,369.604L205.841,369.604z"/>
			<path style="fill:#E3E7F2;" d="M304.16,369.604L449.324,255L304.16,140.396c-7.398-5.84-8.661-16.573-2.821-23.971
				c5.84-7.398,16.573-8.661,23.971-2.821l162.133,128c0.061,0.048,0.104,0.11,0.165,0.159c0.457,0.398,0.893,0.819,1.306,1.263
				c0.402,0.404,0.827,0.788,1.181,1.222c0.052,0.065,0.118,0.11,0.17,0.176c0.255,0.323,0.421,0.683,0.649,1.018
				c0.38,0.526,0.729,1.073,1.045,1.638c0.252,0.48,0.43,0.979,0.633,1.474c0.214,0.524,0.447,1.037,0.607,1.578
				c0.147,0.544,0.265,1.095,0.356,1.651c0.1,0.524,0.22,1.041,0.271,1.572c0.053,0.549,0.036,1.094,0.035,1.644
				c0,0.55,0.017,1.095-0.035,1.644c-0.051,0.531-0.171,1.048-0.271,1.572c-0.091,0.556-0.21,1.107-0.356,1.651
				c-0.16,0.541-0.393,1.054-0.607,1.578c-0.203,0.495-0.381,0.994-0.633,1.474c-0.317,0.566-0.666,1.113-1.045,1.638
				c-0.228,0.335-0.394,0.695-0.649,1.018c-0.047,0.06-0.109,0.099-0.157,0.158c-0.74,0.913-1.573,1.748-2.485,2.49
				c-0.066,0.054-0.119,0.127-0.186,0.179L325.309,396.396c-7.398,5.84-18.13,4.577-23.971-2.821
				C295.498,386.177,296.761,375.445,304.16,369.604z"/>
		</g>
		<path style="fill:#FFFFFF;" d="M118.466,468.333V336.067l-70.315-67.669l-0.171-0.171c-0.908-0.737-1.737-1.567-2.475-2.475
			l-0.171-0.171c-0.256-0.341-0.427-0.683-0.683-1.024c-0.341-0.512-0.683-1.109-1.024-1.621c-0.256-0.512-0.427-1.024-0.597-1.451
			c-0.256-0.597-0.427-1.109-0.597-1.621s-0.256-1.109-0.427-1.621c-0.085-0.512-0.171-1.109-0.256-1.621v-3.243
			c0.085-0.512,0.171-1.109,0.256-1.621c0.171-0.512,0.256-1.109,0.427-1.621s0.341-1.024,0.597-1.621
			c0.171-0.427,0.341-0.939,0.597-1.451c0.341-0.512,0.683-1.109,1.024-1.621c0.256-0.341,0.427-0.683,0.683-1.024l0.171-0.171
			c0.354-0.44,0.755-0.84,1.195-1.195c0.405-0.448,0.832-0.875,1.28-1.28l0.171-0.171l70.315-67.669V41.667
			c-0.719-17.956,13.117-33.161,31.061-34.133h-25.259c-18.081,0.79-32.12,16.05-31.403,34.133v144.469l-70.315,55.467l-0.171,0.171
			c-0.448,0.405-0.875,0.832-1.28,1.28c-0.44,0.354-0.84,0.755-1.195,1.195l-0.171,0.171c-0.256,0.341-0.427,0.683-0.683,1.024
			c-0.341,0.512-0.683,1.109-1.024,1.621c-0.256,0.512-0.427,1.024-0.597,1.451c-0.256,0.597-0.427,1.109-0.597,1.621
			s-0.256,1.109-0.427,1.621c-0.085,0.512-0.171,1.109-0.256,1.621v3.243c0.085,0.512,0.171,1.109,0.256,1.621
			c0.171,0.512,0.256,1.109,0.427,1.621c0.171,0.512,0.341,1.024,0.597,1.621c0.171,0.427,0.341,0.939,0.597,1.451
			c0.341,0.512,0.683,1.109,1.024,1.621c0.256,0.341,0.427,0.683,0.683,1.024l0.171,0.171c0.737,0.908,1.567,1.737,2.475,2.475
			l0.171,0.171l70.315,55.467v144.469c-0.717,18.084,13.322,33.344,31.403,34.133h25.6
			C131.788,501.677,117.749,486.417,118.466,468.333z"/>
	</g>
	<g>
		<path style="fill:#428DFF;" d="M273.066,460.8h-34.133c-4.713,0-8.533,3.821-8.533,8.533c0,4.713,3.82,8.533,8.533,8.533h34.133
			c4.713,0,8.533-3.821,8.533-8.533C281.599,464.621,277.778,460.8,273.066,460.8z"/>
		<path style="fill:#428DFF;" d="M247.466,51.2h17.067c4.713,0,8.533-3.821,8.533-8.533s-3.82-8.533-8.533-8.533h-17.067
			c-4.713,0-8.533,3.821-8.533,8.533S242.753,51.2,247.466,51.2z"/>
		<path style="fill:#428DFF;" d="M502.895,250.958c-0.135-0.767-0.308-1.526-0.521-2.275c-0.208-0.696-0.475-1.367-1.004-2.654
			c-0.249-0.645-0.531-1.276-0.846-1.892c-0.453-0.838-0.957-1.648-1.508-2.425c-0.278-0.489-0.589-0.96-0.929-1.408
			c-0.179-0.237-0.408-0.508-0.638-0.754c-0.417-0.479-0.921-0.992-1.75-1.812c-0.362-0.371-0.729-0.733-1.221-1.162
			c-0.236-0.237-0.487-0.46-0.75-0.667l-67.063-52.946V42.667C426.638,19.114,407.552,0.028,383.999,0h-256
			C104.446,0.028,85.36,19.114,85.332,42.667v140.298l-67.104,52.977c-0.167,0.133-0.354,0.292-0.529,0.458
			c-0.513,0.446-1.05,0.979-1.912,1.854c-0.413,0.404-0.817,0.817-1.192,1.246c-0.208,0.221-0.417,0.458-0.579,0.667
			c-0.423,0.555-0.811,1.135-1.162,1.737c-0.505,0.716-0.965,1.462-1.379,2.233c-0.321,0.617-0.588,1.25-1.096,2.5
			c-0.288,0.674-0.54,1.362-0.754,2.063c-0.253,0.914-0.459,1.84-0.617,2.775c-0.145,0.674-0.253,1.356-0.325,2.042
			c-0.075,0.877-0.101,1.758-0.075,2.637c-0.021,0.766,0.003,1.532,0.071,2.295c0.103,0.904,0.252,1.803,0.446,2.692
			c0.137,0.725,0.287,1.442,0.488,2.121c0.291,0.921,0.631,1.827,1.017,2.712c0.258,0.638,0.525,1.271,0.846,1.888
			c0.461,0.85,0.972,1.672,1.529,2.462c0.306,0.53,0.648,1.038,1.025,1.521c0.15,0.192,0.333,0.4,0.521,0.604
			c0.933,1.101,1.954,2.124,3.054,3.058c0.221,0.208,0.467,0.425,0.675,0.588l67.054,52.939v140.298
			c0.028,23.553,19.114,42.639,42.667,42.667h256c23.553-0.028,42.639-19.114,42.667-42.667V329.037l67.15-53.012
			c0.154-0.121,0.325-0.275,0.492-0.429c1.133-0.957,2.182-2.008,3.138-3.142c0.167-0.175,0.329-0.358,0.462-0.529
			c0.457-0.581,0.872-1.194,1.242-1.833c0.497-0.706,0.952-1.44,1.363-2.2c0.329-0.633,0.6-1.271,1.112-2.537
			c0.286-0.672,0.537-1.357,0.754-2.054c0.252-0.914,0.457-1.84,0.613-2.775c0.145-0.674,0.253-1.356,0.325-2.042
			c0.075-0.915,0.101-1.833,0.079-2.75c0.013-0.729-0.012-1.457-0.075-2.183C503.222,252.68,503.08,251.815,502.895,250.958z
			 M127.999,17.067h256c14.132,0.015,25.585,11.468,25.6,25.6v25.6h-307.2v-25.6C102.414,28.535,113.867,17.082,127.999,17.067z
			 M28.774,262.612c-0.462-0.379-0.885-0.804-1.263-1.267c-0.204-0.321-0.5-0.779-0.575-0.892l-0.621-1.208l-0.417-1.258
			l-0.229-1.125l0.15-2.442l0.317-1.229l0.45-1.121l0.533-0.796c0.067-0.1,0.183-0.292,0.287-0.463
			c0.125-0.137,0.242-0.267,0.325-0.371l0.704-0.796c0.236-0.175,0.462-0.361,0.679-0.558l161.871-127.792
			c1.766-1.409,4.024-2.049,6.267-1.775c3.43,0.401,6.281,2.83,7.223,6.153c0.941,3.323-0.212,6.886-2.922,9.027L56.386,249.304
			c-2.05,1.617-3.246,4.085-3.246,6.696c0,2.611,1.196,5.078,3.246,6.696L201.553,377.3c3.683,2.925,4.305,8.279,1.391,11.971
			c-2.914,3.692-8.265,4.331-11.966,1.429L29.145,262.933C29.016,262.817,28.886,262.708,28.774,262.612z M75.445,256l9.887-7.806
			v15.611L75.445,256z M383.999,494.933h-256c-14.132-0.015-25.585-11.468-25.6-25.6v-25.6h307.2v25.6
			C409.584,483.465,398.131,494.918,383.999,494.933z M409.599,426.667h-307.2v-84.158l78.008,61.587
			c11.096,8.758,27.191,6.863,35.95-4.233c4.208-5.328,6.127-12.11,5.333-18.853c-0.793-6.743-4.233-12.895-9.563-17.101
			L102.399,277.28V234.72l109.729-86.629c7.178-5.667,10.788-14.733,9.469-23.783s-7.366-16.709-15.862-20.092
			c-8.497-3.383-18.153-1.976-25.331,3.691l-78.004,61.582V85.333h307.2v84.156l-77.996-61.577
			c-7.173-5.724-16.861-7.171-25.393-3.793c-8.532,3.378-14.604,11.066-15.913,20.149s2.343,18.172,9.573,23.823l109.729,86.629
			v42.559L299.87,363.908c-8.56,6.756-11.9,18.194-8.321,28.495c3.579,10.301,13.291,17.204,24.196,17.197
			c5.751-0.011,11.332-1.95,15.85-5.508l78.004-61.581V426.667z M436.553,256l-9.888,7.806v-15.611L436.553,256z M486.107,257.967
			l-0.238,0.821c-0.021,0.046-0.346,0.85-0.367,0.896l-0.438,0.767l-0.446,0.742l-0.129,0.154c-0.304,0.375-0.636,0.728-0.992,1.054
			c-0.212,0.158-0.442,0.35-0.662,0.55L321.024,390.696c-3.699,2.921-9.066,2.291-11.987-1.408
			c-2.921-3.699-2.291-9.066,1.408-11.988l145.167-114.604c2.05-1.617,3.246-4.085,3.246-6.696c0-2.611-1.196-5.078-3.246-6.696
			L310.445,134.7c-2.711-2.14-3.865-5.704-2.924-9.027c0.941-3.323,3.793-5.752,7.224-6.152c0.335-0.038,0.671-0.057,1.008-0.058
			c1.913,0,3.769,0.647,5.267,1.837l161.763,127.708c0.258,0.25,0.542,0.517,0.704,0.654l0.946,0.917l0.046,0.058
			c0.2,0.317,0.504,0.792,0.583,0.908l0.446,0.779l0.5,1.196l0.162,0.858l0.158,1.258l0.009,1.121l8.442,1.267L486.107,257.967z"/>
	</g>
</g>
<g>
</g>
<g>
</g>
<g>
</g>
<g>
</g>
<g>
</g>
<g>
</g>
<g>
</g>
<g>
</g>
<g>
</g>
<g>
</g>
<g>
</g>
<g>
</g>
<g>
</g>
<g>
</g>
<g>
</g>
</svg>
