<?xml version="1.0" encoding="iso-8859-1"?>
<!-- Generator: Adobe Illustrator 19.0.0, SVG Export Plug-In . SVG Version: 6.00 Build 0)  -->
<svg version="1.1" id="Capa_66" xmlns="http://www.w3.org/2000/svg" xmlns:xlink="http://www.w3.org/1999/xlink" x="0px" y="0px"
	 viewBox="0 0 512 512" style="enable-background:new 0 0 512 512;" xml:space="preserve">
<g>
	<g transform="translate(1 1)">
		<path style="fill:#A4C2F7;" d="M476.867,135.533v8.533c0.012,15.846-6.278,31.046-17.483,42.251
			c-11.205,11.205-26.405,17.494-42.251,17.483l-4.011-4.011c23.021-8.89,38.186-31.044,38.144-55.723v-8.533
			c0.007-27.16-10.779-53.211-29.984-72.416c-19.205-19.205-45.256-29.991-72.416-29.984l25.6,0
			c27.16-0.007,53.211,10.779,72.416,29.984C466.088,82.323,476.874,108.373,476.867,135.533z"/>
		<g>
			<path style="fill:#E3E7F2;" d="M451.267,135.533v8.533c0.042,24.678-15.123,46.832-38.144,55.723L357.4,144.067
				c-0.018-24.431,14.857-46.406,37.547-55.467c-6.46-2.818-13.432-4.271-20.48-4.267H135.533c-7.048-0.004-14.02,1.449-20.48,4.267
				c22.689,9.06,37.565,31.035,37.547,55.467L92.867,203.8c-15.849,0.023-31.056-6.263-42.263-17.47
				c-11.207-11.207-17.493-26.414-17.47-42.263v-8.533c-0.007-27.16,10.779-53.211,29.984-72.416s45.256-29.991,72.416-29.984
				h213.333c27.16-0.007,53.211,10.779,72.416,29.984C440.488,82.323,451.274,108.373,451.267,135.533z"/>
			<path style="fill:#E3E7F2;" d="M203.8,7.533c9.426,0,17.067,7.641,17.067,17.067v204.8h-34.133V24.6
				C186.733,15.174,194.374,7.533,203.8,7.533z"/>
			<path style="fill:#E3E7F2;" d="M306.2,7.533c9.426,0,17.067,7.641,17.067,17.067v204.8h-34.133V24.6
				C289.133,15.174,296.774,7.533,306.2,7.533z"/>
		</g>
		<path style="fill:#A4C2F7;" d="M407.576,502.467H102.424c-10.506-0.011-20.423-4.857-26.888-13.138
			c-6.465-8.281-8.76-19.077-6.221-29.272l54.443-217.771c1.892-7.595,8.728-12.915,16.555-12.885h229.376
			c7.827-0.03,14.662,5.29,16.555,12.885l54.443,217.771c2.538,10.195,0.244,20.991-6.221,29.272
			C427.999,497.61,418.082,502.455,407.576,502.467z"/>
		<g>
			<path style="fill:#E3E7F2;" d="M383,502.467H102.424c-10.506-0.011-20.423-4.857-26.888-13.138
				c-6.465-8.281-8.76-19.077-6.221-29.272l54.443-217.771c1.892-7.595,8.728-12.915,16.555-12.885h204.8
				c7.827-0.03,14.662,5.29,16.555,12.885l54.443,217.771c2.538,10.195,0.244,20.991-6.221,29.272
				C403.423,497.61,393.506,502.455,383,502.467z"/>
			<rect x="220.867" y="178.2" style="fill:#E3E7F2;" width="68.267" height="51.2"/>
		</g>
		<path style="fill:#A4C2F7;" d="M357.4,365.933c0.007,27.16-10.779,53.211-29.984,72.416
			c-19.205,19.205-45.256,29.991-72.416,29.984c-4.281,0.019-8.559-0.266-12.8-0.853c-51.194-6.424-89.601-49.951-89.601-101.547
			s38.407-95.123,89.601-101.547c4.241-0.587,8.519-0.872,12.8-0.853c27.16-0.008,53.211,10.779,72.416,29.984
			C346.621,312.723,357.408,338.773,357.4,365.933z"/>
		<ellipse style="fill:#E3E7F2;" cx="242.2" cy="365.933" rx="89.6" ry="101.547"/>
		<circle style="fill:#A4C2F7;" cx="255" cy="365.933" r="25.6"/>
	</g>
	<path style="fill:#FFFFFF;" d="M59.733,145.067v-8.533c-0.007-27.16,10.779-53.211,29.984-72.416s45.256-29.991,72.416-29.984
		l-25.6,0c-27.16-0.007-53.211,10.779-72.416,29.984s-29.991,45.256-29.984,72.416v8.533c-0.023,15.849,6.263,31.056,17.47,42.263
		c11.207,11.207,26.414,17.493,42.263,17.47l4.011-4.011C74.856,191.899,59.691,169.745,59.733,145.067z M141.312,230.4
		c-7.827-0.03-14.662,5.29-16.555,12.885L70.315,461.056c-2.538,10.195-0.244,20.991,6.221,29.272
		c6.465,8.281,16.382,13.127,26.888,13.138h25.6c-10.506-0.011-20.423-4.857-26.888-13.138c-6.465-8.281-8.76-19.077-6.221-29.272
		l54.443-217.771c1.892-7.595,8.728-12.915,16.555-12.885L141.312,230.4z"/>
	<g>
		<polygon style="fill:#FFFFFF;" points="133.043,245.393 106.138,353.015 78.618,463.121 62.054,458.982 89.583,348.877
			116.489,241.254 		"/>
		<g>
			<path style="fill:#428DFF;" d="M106.142,317.834c3.351,0.823,6.868-0.444,8.924-3.214c2.056-2.771,2.25-6.504,0.492-9.473
				l-0.992-1.305c-0.383-0.43-0.822-0.806-1.305-1.12c-0.41-0.356-0.871-0.647-1.368-0.866c-0.523-0.23-1.062-0.424-1.612-0.579
				c-2.199-0.517-4.513-0.184-6.478,0.932c-2.492,1.433-4.081,4.039-4.211,6.911c-0.131,2.872,1.214,5.611,3.566,7.264
				C104.048,317.058,105.062,317.551,106.142,317.834z"/>
			<path style="fill:#428DFF;" d="M486.4,136.533C486.331,75.295,436.705,25.669,375.467,25.6H332.8c0-14.138-11.462-25.6-25.6-25.6
				s-25.6,11.462-25.6,25.6h-51.2c0-14.138-11.462-25.6-25.6-25.6c-14.139,0-25.6,11.462-25.6,25.6h-42.667
				C75.295,25.669,25.669,75.295,25.6,136.533v8.533c0.043,37.685,30.582,68.224,68.267,68.267c2.263,0,4.434-0.899,6.033-2.5
				l59.733-59.733c1.6-1.6,2.5-3.77,2.5-6.033c0.026-19.626-8.451-38.301-23.242-51.2H179.2v128h-37.875
				c-11.751-0.013-21.998,7.988-24.833,19.392l-0.002-0.001l-8.278,33.114c-1.143,4.572,1.637,9.205,6.209,10.348
				c4.572,1.143,9.205-1.637,10.348-6.209l8.279-33.114l-0.004-0.001c0.949-3.8,4.365-6.465,8.282-6.462h229.35
				c3.919-0.003,7.335,2.664,8.283,6.467l54.433,217.721c1.91,7.649,0.19,15.751-4.662,21.965
				c-4.852,6.214-12.296,9.846-20.179,9.848H103.45c-7.883-0.001-15.327-3.634-20.179-9.847c-4.852-6.213-6.572-14.315-4.663-21.964
				l0.007,0.002l29.597-118.385c0.757-2.964-0.131-6.106-2.326-8.235c-2.195-2.13-5.363-2.922-8.302-2.076
				c-2.939,0.846-5.201,3.201-5.928,6.172L62.058,458.985l0.002,0.001l-0.001,0.002c-3.189,12.746-0.326,26.25,7.76,36.606
				C77.904,505.95,90.311,512.002,103.45,512H408.55c13.14,0.002,25.547-6.051,33.633-16.408
				c8.086-10.357,10.948-23.862,7.759-36.609l-54.434-217.725c-2.836-11.404-13.082-19.405-24.833-19.392H332.8v-128h40.309
				c-14.791,12.9-23.268,31.574-23.242,51.2c0.001,2.263,0.9,4.433,2.5,6.033l59.733,59.733c1.6,1.601,3.77,2.5,6.033,2.5
				c37.685-0.043,68.224-30.582,68.267-68.267V136.533z M230.4,93.867h51.2v76.8h-51.2V93.867z M281.6,42.667V76.8h-51.2V42.667
				H281.6z M136.533,76.8c-8.2,0.01-16.312,1.697-23.836,4.956l-0.012,0.004l-0.06,0.023c-0.279,0.171-0.546,0.359-0.802,0.563
				c-1.526,0.709-2.721,1.977-3.338,3.541c-0.099,0.202-0.275,0.337-0.36,0.55l-0.005,0.024c-0.837,2.106-0.798,4.459,0.108,6.537
				l0.005,0.022c0.406,0.896,0.966,1.713,1.654,2.415c0.186,0.197,0.404,0.35,0.61,0.53c0.591,0.517,1.251,0.949,1.961,1.282
				c0.157,0.074,0.261,0.212,0.425,0.278c18.332,7.254,30.828,24.441,32.075,44.117l-54.517,54.513
				c-26.874-1.834-47.745-24.152-47.775-51.088v-8.533c0.059-51.817,42.05-93.808,93.867-93.867H179.2V76.8H136.533z M196.267,25.6
				c0-4.713,3.821-8.533,8.533-8.533c4.713,0,8.533,3.821,8.533,8.533v196.267h-17.067V25.6z M230.4,187.733h51.2v34.133h-51.2
				V187.733z M298.667,221.867V25.6c0-4.713,3.82-8.533,8.533-8.533s8.533,3.821,8.533,8.533v196.267H298.667z M421.558,196.154
				l-54.517-54.513c1.247-19.676,13.743-36.863,32.075-44.117c0.164-0.065,0.267-0.204,0.425-0.278
				c0.71-0.334,1.371-0.765,1.961-1.282c0.206-0.18,0.423-0.332,0.61-0.53c0.688-0.702,1.248-1.519,1.654-2.415l0.005-0.022
				c0.906-2.077,0.945-4.43,0.108-6.537l-0.005-0.024c-0.086-0.215-0.263-0.353-0.364-0.557c-0.622-1.569-1.822-2.838-3.353-3.547
				c-0.25-0.199-0.511-0.382-0.783-0.55l-0.059-0.022l-0.007-0.003c-7.526-3.262-15.64-4.949-23.842-4.958H332.8V42.667h42.667
				c51.817,0.059,93.808,42.05,93.867,93.867v8.533C469.303,172.002,448.432,194.321,421.558,196.154z"/>
			<path style="fill:#428DFF;" d="M366.933,366.933C366.933,305.667,317.267,256,256,256s-110.933,49.667-110.933,110.933
				S194.733,477.867,256,477.867C317.238,477.797,366.864,428.171,366.933,366.933z M162.133,366.933
				c0-51.841,42.026-93.867,93.867-93.867s93.867,42.026,93.867,93.867S307.841,460.8,256,460.8
				C204.183,460.741,162.192,418.75,162.133,366.933z"/>
			<path style="fill:#428DFF;" d="M256,315.733c2.263,0.001,4.434-0.898,6.035-2.499c1.6-1.6,2.499-3.771,2.499-6.035v-8.533
				c0-4.713-3.821-8.533-8.533-8.533c-4.713,0-8.533,3.82-8.533,8.533v8.533c-0.001,2.263,0.898,4.434,2.499,6.035
				C251.566,314.835,253.737,315.734,256,315.733z"/>
			<path style="fill:#428DFF;" d="M264.533,435.2v-8.533c0-4.713-3.821-8.533-8.533-8.533c-4.713,0-8.533,3.82-8.533,8.533v8.533
				c0,4.713,3.821,8.533,8.533,8.533C260.713,443.733,264.533,439.913,264.533,435.2z"/>
			<path style="fill:#428DFF;" d="M218.742,319.471c1.523,2.642,4.341,4.271,7.392,4.272c3.05,0.001,5.869-1.626,7.394-4.268
				s1.524-5.896-0.002-8.537l-4.267-7.392c-2.358-4.08-7.575-5.477-11.656-3.121c-4.081,2.356-5.481,7.573-3.127,11.655
				L218.742,319.471z"/>
			<path style="fill:#428DFF;" d="M293.258,414.396c-2.358-4.08-7.575-5.477-11.656-3.121c-4.081,2.356-5.481,7.573-3.127,11.655
				l4.267,7.392c2.358,4.08,7.575,5.477,11.656,3.121c4.081-2.356,5.481-7.573,3.127-11.655L293.258,414.396z"/>
			<path style="fill:#428DFF;" d="M208.533,329.679l-7.383-4.267c-2.64-1.535-5.899-1.542-8.546-0.018
				c-2.647,1.524-4.277,4.346-4.274,7.4c0.003,3.054,1.637,5.874,4.287,7.393l7.383,4.267c1.293,0.752,2.762,1.148,4.258,1.146
				c3.864,0.006,7.251-2.586,8.253-6.318C213.513,335.549,211.881,331.61,208.533,329.679z"/>
			<path style="fill:#428DFF;" d="M303.467,404.188l7.383,4.267c1.293,0.752,2.762,1.148,4.258,1.146
				c3.865,0.006,7.251-2.586,8.253-6.318s-0.63-7.672-3.978-9.603L312,389.413c-2.64-1.535-5.899-1.542-8.546-0.018
				s-4.277,4.346-4.274,7.4C299.183,399.848,300.818,402.668,303.467,404.188z"/>
			<path style="fill:#428DFF;" d="M204.8,366.933c0.001-2.263-0.898-4.434-2.499-6.035c-1.6-1.6-3.771-2.499-6.035-2.499h-8.533
				c-4.713,0-8.533,3.82-8.533,8.533s3.821,8.533,8.533,8.533h8.533c2.263,0.001,4.434-0.898,6.035-2.499
				C203.902,371.368,204.801,369.197,204.8,366.933z"/>
			<path style="fill:#428DFF;" d="M307.2,366.933c-0.001,2.263,0.898,4.434,2.499,6.035c1.6,1.6,3.771,2.499,6.035,2.499h8.533
				c4.713,0,8.533-3.82,8.533-8.533s-3.82-8.533-8.533-8.533h-8.533c-2.263-0.001-4.434,0.898-6.035,2.499
				C308.098,362.499,307.199,364.67,307.2,366.933z"/>
			<path style="fill:#428DFF;" d="M200,389.413l-7.383,4.267c-2.649,1.519-4.284,4.339-4.287,7.393
				c-0.003,3.054,1.627,5.876,4.274,7.4c2.647,1.524,5.906,1.517,8.546-0.018l7.383-4.267c2.649-1.519,4.284-4.339,4.287-7.393
				c0.003-3.054-1.628-5.876-4.274-7.4S202.64,387.877,200,389.413z"/>
			<path style="fill:#428DFF;" d="M307.742,345.6c1.496,0.002,2.965-0.394,4.258-1.146l7.383-4.267
				c2.649-1.519,4.284-4.339,4.287-7.393c0.003-3.054-1.627-5.876-4.274-7.4c-2.647-1.524-5.906-1.517-8.546,0.018l-7.383,4.267
				c-3.348,1.93-4.98,5.87-3.978,9.602C300.491,343.014,303.877,345.606,307.742,345.6z"/>
			<path style="fill:#428DFF;" d="M230.4,411.271c-1.96-1.133-4.29-1.44-6.477-0.854c-2.187,0.586-4.051,2.017-5.182,3.979
				l-4.267,7.392c-2.353,4.082-0.954,9.299,3.127,11.655s9.298,0.958,11.656-3.121l4.267-7.392c1.132-1.96,1.439-4.29,0.853-6.477
				C233.792,414.266,232.361,412.402,230.4,411.271z"/>
			<path style="fill:#428DFF;" d="M281.6,322.596c4.083,2.354,9.301,0.956,11.658-3.125l4.267-7.392
				c2.353-4.082,0.954-9.299-3.127-11.655c-4.081-2.356-9.298-0.958-11.656,3.121l-4.267,7.392c-1.132,1.96-1.439,4.29-0.853,6.477
				C278.208,319.601,279.639,321.465,281.6,322.596z"/>
			<path style="fill:#428DFF;" d="M290.133,366.933c0-18.851-15.282-34.133-34.133-34.133s-34.133,15.282-34.133,34.133
				c0,18.851,15.282,34.133,34.133,34.133C274.843,401.047,290.113,385.776,290.133,366.933z M256,384
				c-9.426,0-17.067-7.641-17.067-17.067s7.641-17.067,17.067-17.067c9.426,0,17.067,7.641,17.067,17.067
				C273.056,376.355,265.421,383.989,256,384z"/>
		</g>
	</g>
</g>
<g>
</g>
<g>
</g>
<g>
</g>
<g>
</g>
<g>
</g>
<g>
</g>
<g>
</g>
<g>
</g>
<g>
</g>
<g>
</g>
<g>
</g>
<g>
</g>
<g>
</g>
<g>
</g>
<g>
</g>
</svg>
