<?xml version="1.0" encoding="UTF-8"?>
<svg width="512px" height="512px" viewBox="0 0 512 512" version="1.1" xmlns="http://www.w3.org/2000/svg" xmlns:xlink="http://www.w3.org/1999/xlink">
    <!-- Generator: Sketch 50.2 (55047) - http://www.bohemiancoding.com/sketch -->
    <title>nicer00ster</title>
    <desc>Created with Sketch.</desc>
    <defs>
        <path d="M127.25,0 L381.75,1.8836784e-14 C452.028234,5.92688176e-15 509,56.9717656 509,127.25 L509,381.75 C509,452.028234 452.028234,509 381.75,509 L127.25,509 C56.9717656,509 8.60660148e-15,452.028234 0,381.75 L0,127.25 C-8.60660148e-15,56.9717656 56.9717656,1.29099022e-14 127.25,0 Z" id="path-1"></path>
    </defs>
    <g id="nicer00ster" stroke="none" stroke-width="1" fill="none" fill-rule="evenodd">
        <mask id="mask-2" fill="white">
            <use xlink:href="#path-1"></use>
        </mask>
        <path stroke="#000000" d="M127.25,0.5 C57.247908,0.5 0.5,57.247908 0.5,127.25 L0.5,381.75 C0.5,451.752092 57.247908,508.5 127.25,508.5 L381.75,508.5 C451.752092,508.5 508.5,451.752092 508.5,381.75 L508.5,127.25 C508.5,57.247908 451.752092,0.5 381.75,0.5 L127.25,0.5 Z"></path>
        <g id="Group" mask="url(#mask-2)" fill-opacity="0.5">
            <polygon id="Rectangle-2" fill="#FFFFCA" points="0 0 254.965775 254.844762 509.93155 509.689523 0 509.689523"></polygon>
            <polygon id="Rectangle-3" fill="#FFBDC5" points="0 0 509.93155 0 509.93155 509.689523 254.965775 254.844762"></polygon>
        </g>
        <path d="M133.142003,168.090039 C128.465459,188.312004 126.194853,216.267249 126.194853,237.70733 C126.194853,252.000718 128.51057,265.237727 133.142003,277.418358 C142.167743,295.392702 149.188867,307.29828 154.205376,313.135093 C162.271737,322.520473 172.504984,329.695607 184.905117,334.660494 L218.044685,348.639435 C204.860802,356.056787 196.950239,360.74293 194.312994,362.697866 C190.357126,365.63027 185.995147,378.071693 189.424849,383.762336 C192.854551,389.452978 204.653378,394.641311 223.578247,398.417419 C242.503116,402.193528 276.314231,394.87403 290.117548,383.762336 C297.2273,378.038972 313.441307,356.601869 319.240709,332.26042 C324.700627,309.343864 317.509203,283.576269 308.587652,271.916311 C290.189832,247.871408 284.822961,244.757293 265.646469,237.70733 C246.469976,230.657367 198.322069,239.732135 184.905117,237.70733 C171.488165,235.682525 147.25074,220.788009 141.992927,207.276585 C136.636644,193.512114 134.723389,172.885277 133.142003,168.090039 Z" id="Path-3" fill="#000000" mask="url(#mask-2)"></path>
        <path d="M404.398897,177.530699 L452.101085,160.03134 L425.012947,206.938076 L458,215.044895 C440.132966,224.903074 431.199448,229.832163 431.199448,229.832163 C431.199448,229.832163 438.559805,240.345745 436.70322,271.481732 C435.465496,292.239057 431.568738,312.45832 425.012947,332.139522 C412.11936,373.173543 393.841509,404.903607 370.179394,427.329714 C334.686221,460.968875 316.535947,468.250816 274.316737,475.045596 C230.092616,482.163048 184.435769,468.108828 169.923686,460.598144 C141.557428,445.917273 129.852422,435.25146 118.000696,424.083367 C110.099545,416.637971 99.470726,404.086028 86.1142382,386.427536 C74.612991,368.629736 66.7251294,354.683642 62.4506534,344.589252 C56.0389394,329.447667 52.4096643,322.784722 47.6439543,295.578028 C42.8782443,268.371334 43.0002897,260.101856 43.0002897,241.4844 C43.0002897,229.072762 44.5481779,209.86906 47.6439543,183.873292 C54.4900238,200.006984 62.2407039,210.397519 70.8959944,215.044895 C75.6455911,217.595146 81.2821273,218.641909 87.8056033,218.185183 C91.3818649,217.9348 100.004675,214.806637 108.356717,209.378556 C107.652499,217.946489 107.010684,224.236099 107.007156,227.548317 C106.999377,234.851334 106.966268,239.792732 107.007156,243.933472 C107.057153,248.996764 108.928314,269.958501 116.427667,290.935046 C123.440824,310.551648 142.910306,331.620353 149.651997,336.878039 C158.952504,344.131284 169.242266,349.856948 178.011066,351.008525 C166.706734,360.897268 160.038063,369.001636 163.213113,379.304703 C164.092076,382.156947 170.125107,393.925503 182.833648,401.038114 C183.924492,401.648628 198.040248,410.273989 217.072772,413.262356 C233.168221,415.789562 252.319031,414.666316 260.064688,413.262356 C263.705858,412.602366 297.277653,402.082679 310.634731,386.427536 C314.1183,382.344623 320.262507,376.218581 325.537113,366.124717 C330.051325,357.485997 335.524073,345.73839 337.362713,332.139522 C341.349702,302.651131 330.855277,277.205781 328.531707,271.481732 C326.271902,265.914766 320.563998,253.757087 312.489309,243.933472 C304.473546,234.181544 293.703176,227.582567 287.559824,224.348915 C279.338581,220.021532 270.398139,217.683335 260.064688,216.359774 C249.731238,215.036214 243.88812,214.986231 234.677734,215.692848 C225.467349,216.399465 212.103349,218.034738 197.806134,219.495388 C209.219392,212.666688 220.317213,202.798667 226.34461,194.363447 C232.372006,185.928228 234.443952,176.891711 238.823549,162.25941 C246.76577,149.016812 249.357126,145.195979 260.064688,138.139697 C271.144595,130.83804 286.038896,128.212772 291.954725,126.295788 C297.870554,124.378804 331.709417,123.657042 348.488794,130.909536 C365.26817,138.16203 378.311746,151.284919 404.398897,177.530699 Z" id="Path-2" fill="#000000" mask="url(#mask-2)"></path>
        <path d="M375,175.869286 C371.614767,174.68146 369.157669,174.362618 367.628707,174.91276 C364.188542,176.150581 363.392793,178.332134 362.152414,180.493642 C361.325495,181.934647 360.839759,184.438315 360.955204,187.552028 C359.975271,189.333439 358.795337,190 357.710782,190 C356.083949,190 355.234805,189.638019 354.411602,187.552028 C353.862799,186.161368 353.862799,183.626024 354.411602,179.945999 C355.202771,176.705885 356.554807,174.106574 358.46771,172.148066 C360.380612,170.189559 361.232731,169.053314 364.5,168.320327 C367.767269,167.58734 368.513984,168.10022 371.133589,169.983582 C372.879993,171.239156 374.168797,173.201057 375,175.869286 Z" id="Path-4" fill="#FFFFFF" mask="url(#mask-2)"></path>
        <path d="M401.942359,163.476425 C393.580627,153.02239 387.742225,146.231582 384.427152,143.104003 C379.454543,138.412634 373.378291,131.052915 361.343184,124.445922 C349.308077,117.838928 346.419021,117.142181 332.913442,114.840413 C323.909723,113.305901 314.599593,113.305901 304.983051,114.840413 C301.312858,91.3189264 300.470271,75.5139403 302.455289,67.4254543 C303.802301,61.9366978 306.335025,56.4654385 310.05346,51.0116764 C315.539358,43.4745988 321.3798,38.0695778 327.574786,34.7966136 C336.867266,29.8871672 342.29856,29.1937282 349.347276,30.2517841 C357.818809,31.5234134 364.898269,37.3928846 368.153935,41.1180286 C370.640265,43.9628961 374.61473,49.1041018 376.978514,57.1027546 C377.922904,60.2984147 378.801015,66.1109015 379.612845,74.5402149 C384.589687,70.9659055 388.574674,68.5943187 391.567805,67.4254543 C393.952956,66.4940156 404.114726,62.2144303 412.186121,65.464863 C419.30794,68.3328918 424.010521,76.3791637 424.010521,81.551873 C424.010521,88.9086152 421.17069,96.3682339 415.491029,103.930729 C431.439953,100.471344 441.271832,101.61041 444.986666,107.347927 C450.558917,115.954203 451.559701,127.168989 441.535672,141.420306 C437.080548,147.754225 423.882777,155.106265 401.942359,163.476425 Z" id="Path" fill="#000000" mask="url(#mask-2)"></path>
    </g>
</svg>