<?xml version="1.0" encoding="UTF-8"?>
<svg width="192px" height="192px" viewBox="0 0 192 192" version="1.1" xmlns="http://www.w3.org/2000/svg" xmlns:xlink="http://www.w3.org/1999/xlink">
    <!-- Generator: Sketch 50.2 (55047) - http://www.bohemiancoding.com/sketch -->
    <title>nicer00ster</title>
    <desc>Created with Sketch.</desc>
    <defs>
        <path d="M47.75,0 L143.25,7.06841992e-15 C169.621597,2.22403618e-15 191,21.3784032 191,47.75 L191,143.25 C191,169.621597 169.621597,191 143.25,191 L47.75,191 C21.3784032,191 3.22958916e-15,169.621597 0,143.25 L0,47.75 C-3.22958916e-15,21.3784032 21.3784032,4.84438374e-15 47.75,0 Z" id="path-1"></path>
    </defs>
    <g id="nicer00ster" stroke="none" stroke-width="1" fill="none" fill-rule="evenodd">
        <mask id="mask-2" fill="white">
            <use xlink:href="#path-1"></use>
        </mask>
        <path stroke="#000000" d="M47.75,0.5 C21.6545456,0.5 0.5,21.6545456 0.5,47.75 L0.5,143.25 C0.5,169.345454 21.6545456,190.5 47.75,190.5 L143.25,190.5 C169.345454,190.5 190.5,169.345454 190.5,143.25 L190.5,47.75 C190.5,21.6545456 169.345454,0.5 143.25,0.5 L47.75,0.5 Z"></path>
        <g id="Group" mask="url(#mask-2)" fill-opacity="0.5">
            <polygon id="Rectangle-2" fill="#FFFFCA" points="0 0 95.7992737 95.7538047 191.598547 191.507609 0 191.507609"></polygon>
            <polygon id="Rectangle-3" fill="#FFBDC5" points="0 0 191.598547 0 191.598547 191.507609 95.7992737 95.7538047"></polygon>
        </g>
        <path d="M49.6015035,63 C47.8502752,70.6051804 47,81.1187321 47,89.1820278 C47,94.5575583 47.8671678,99.5358006 49.6015035,104.116755 C52.9813786,110.876638 55.6105837,115.354149 57.4891189,117.549288 C60.5097347,121.078989 64.3417855,123.777451 68.9852715,125.644671 L81.3950673,130.901942 C76.4580902,133.691498 73.4958162,135.453887 72.5082453,136.189109 C71.026889,137.291943 69.3934556,141.970977 70.6777784,144.111143 C71.9621013,146.251309 76.3804159,148.202564 83.4672241,149.622702 C90.5540322,151.04284 103.215303,148.290086 108.38424,144.111143 C111.046634,141.958671 117.118304,133.896496 119.29001,124.742039 C121.334589,116.123463 118.641611,106.432654 115.300752,102.047517 C108.411308,93.0045864 106.401573,91.8334139 99.2205391,89.1820278 C92.0395052,86.5306418 74.0095265,89.943527 68.9852715,89.1820278 C63.9610164,88.4205287 54.8848118,82.8189227 52.9159152,77.7374773 C50.9101443,72.5608643 50.1936862,64.8034178 49.6015035,63 Z" id="Path-3" fill="#000000" mask="url(#mask-2)"></path>
        <path d="M151.851152,66.6990122 L169.782577,60.1367524 L159.600048,77.7267786 L172,80.7668358 C165.283717,84.4636527 161.925576,86.3120612 161.925576,86.3120612 C161.925576,86.3120612 164.692361,90.2546543 163.994463,101.93065 C163.529198,109.714646 162.064393,117.29687 159.600048,124.677321 C154.753302,140.065079 147.882591,151.963853 138.987917,160.373643 C125.645905,172.988328 118.823151,175.719056 102.952797,178.267099 C86.3287904,180.936143 69.1662168,175.665811 63.7110722,172.849304 C53.0480933,167.343977 48.6481393,163.344297 44.1930327,159.156262 C41.2229616,156.364239 37.22755,151.65726 32.206798,145.035326 C27.8834376,138.361151 24.9183619,133.131366 23.3115709,129.345969 C20.9013845,123.667875 19.5371268,121.169271 17.7456792,110.96676 C15.9542316,100.76425 16.0001089,97.6631959 16.0001089,90.6816499 C16.0001089,86.0272858 16.5819657,78.8258973 17.7456792,69.0774843 C20.3191415,75.127619 23.2326501,79.0240695 26.4862051,80.7668358 C28.2715957,81.7231799 30.39039,82.1157159 32.8425882,81.9444437 C34.1869179,81.8505499 37.4282633,80.6774888 40.567826,78.6419584 C40.303108,81.8549334 40.0618475,84.213537 40.0605213,85.4556189 C40.0575971,88.1942504 40.0451514,90.0472743 40.0605213,91.600052 C40.0793155,93.4987866 40.7826916,101.359438 43.6017254,109.225642 C46.2379965,116.581868 53.556645,124.482632 56.0908713,126.454265 C59.5869653,129.174231 63.4549239,131.321355 66.7511478,131.753197 C62.5018085,135.461476 59.995031,138.500613 61.1885435,142.364264 C61.5189489,143.433855 63.7867874,147.847064 68.5639739,150.514293 C68.9740258,150.743236 74.2801896,153.977746 81.4345842,155.098383 C87.4849217,156.046086 94.6837804,155.624868 97.5954009,155.098383 C98.9641297,154.850887 111.583889,150.906005 116.604863,145.035326 C117.914349,143.504234 120.223979,141.206968 122.206722,137.421769 C123.903631,134.182249 125.960856,129.776896 126.652008,124.677321 C128.150731,113.619174 124.205839,104.077168 123.332401,101.93065 C122.482932,99.8430371 120.33731,95.2839078 117.302005,91.600052 C114.288851,87.9430791 110.24023,85.4684627 107.930922,84.2558431 C104.840527,82.6330743 101.479782,81.7562504 97.5954009,81.2599154 C93.7110195,80.7635804 91.5145704,80.7448367 88.0523532,81.0098181 C84.590136,81.2747995 79.5665599,81.8880267 74.1921852,82.4357705 C78.4824701,79.8750079 82.6541814,76.1745 84.9199014,73.0112927 C87.1856214,69.8480854 87.9644735,66.4593916 89.6107798,60.9722787 C92.5962894,56.0063044 93.5703895,54.5734922 97.5954009,51.9273865 C101.760378,49.1892651 107.359199,48.2047894 109.582981,47.4859204 C111.806763,46.7670514 124.526913,46.4963906 130.834342,49.2160759 C137.14177,51.9357611 142.044897,56.8568448 151.851152,66.6990122 Z" id="Path-2" fill="#000000" mask="url(#mask-2)"></path>
        <path d="M141,65.8615585 C139.710387,65.4296218 138.77435,65.3136793 138.191888,65.513731 C136.88135,65.9638475 136.578207,66.7571395 136.105682,67.5431425 C135.790665,68.0671445 135.605622,68.9775692 135.649602,70.1098285 C135.276294,70.7576141 134.826795,71 134.413631,71 C133.793885,71 133.470402,70.8683706 133.156801,70.1098285 C132.947733,69.6041337 132.947733,68.6821907 133.156801,67.3439995 C133.458199,66.1657763 133.97326,65.2205724 134.701985,64.5083878 C135.430709,63.7962032 135.755326,63.3830235 137,63.1164827 C138.244674,62.8499419 138.529137,63.0364437 139.527082,63.7213024 C140.192378,64.1778748 140.683351,64.8912935 141,65.8615585 Z" id="Path-4" fill="#FFFFFF" mask="url(#mask-2)"></path>
        <path d="M151.10716,61 C147.93761,57.0890698 145.724538,54.5485797 144.467946,53.3785297 C142.583057,51.6234546 140.279828,48.8701307 135.717869,46.3984068 C131.155911,43.9266828 130.060802,43.6660245 124.941455,42.8049164 C121.528557,42.2308444 117.999512,42.2308444 114.354321,42.8049164 C112.963119,34.0053585 112.643732,28.092599 113.396162,25.066638 C113.906753,23.0132545 114.866792,20.9664169 116.276281,18.9261251 C118.355734,16.1064499 120.569578,14.0843925 122.917814,12.8599529 C126.440168,11.0232936 128.498923,10.7638731 131.170769,11.1596994 C134.38194,11.6354251 137.06544,13.8312367 138.299514,15.22484 C139.241968,16.2891255 140.748506,18.2124876 141.644508,21.2048414 C142.002483,22.400361 142.335334,24.5748543 142.643062,27.7283213 C144.529555,26.3911463 146.040081,25.5039186 147.174641,25.066638 C148.078742,24.71818 151.930605,23.1171562 154.990101,24.3331666 C157.689657,25.4061169 159.47219,28.4162853 159.47219,30.3514333 C159.47219,33.1036436 158.39574,35.8943409 156.242841,38.7235249 C162.288348,37.4293441 166.015164,37.8554769 167.423287,40.0019235 C169.535473,43.2215933 169.914824,47.4171257 166.115173,52.7486466 C164.42644,55.1182115 159.423768,57.8686626 151.10716,61 Z" id="Path" fill="#000000" mask="url(#mask-2)"></path>
    </g>
</svg>