<?xml version="1.0" encoding="iso-8859-1"?>
<!-- Generator: Adobe Illustrator 18.1.1, SVG Export Plug-In . SVG Version: 6.00 Build 0)  -->
<svg version="1.1" id="Capa_1" xmlns="http://www.w3.org/2000/svg" xmlns:xlink="http://www.w3.org/1999/xlink" x="0px" y="0px"
	 viewBox="0 0 49.111 49.111" style="enable-background:new 0 0 49.111 49.111;" xml:space="preserve">
<path id="instagram" d="M48.844,24.862c-0.1-5.5-0.3-13.4-0.6-14.6s-4.1-6.8-5.4-8s-3.7-1.8-5.9-1.8c-2.2-0.1-20-0.8-24.9-0.2
	s-6.8,2.5-8.1,3.6c-1.1,1-2.5,2-3.1,3.9s-0.7,7.4-0.8,13.2c-0.1,5.9,0,12.5,0,15.3s1.3,5.5,2.7,7.3s4.3,3.7,6,4.3s2.4,0.9,7.2,1
	c4.9,0.1,8.2,0.3,14.9,0.2c6.6-0.1,9.2-0.4,12.1-1.8s5.1-4.9,5.8-6.8S48.944,30.462,48.844,24.862z M35.744,45.762
	c-0.1,0.1-1,0.3-1.1,0.1c-0.2-0.2-1.5-3-1.5-3.1c0-0.2,1.2-0.2,1.3-0.1S35.844,45.662,35.744,45.762z M10.944,26.862
	c0.1,1.2,0.8,5.1,3.4,7.2c2.6,2.1,4.8,3,7.1,3.2s5.4-0.3,7.1-1.2s4.3-2.7,5.2-4.8s1.5-4.8,1.5-6.2c0-1.4,0.2-2.9,0.3-3
	s6.7-0.4,6.9-0.1s0.3,9.8,0.1,12.5s-0.2,4.9-1.2,5.6c-1,0.8-1,1.1-4.2,1.3s-7.8,0.7-12.7,0.7s-10.6-0.1-12.6-0.3s-3.6-0.8-3.8-1.6
	s-0.4-6.5-0.5-10s0-7.1,0.2-7.4c0.2-0.2,3.4-1.1,3.5-1C11.144,21.962,10.844,25.662,10.944,26.862z M36.644,45.562
	c-0.2-0.1-1.4-3-1.4-3c0-0.1,1.1-0.1,1.2-0.1s1.7,2.5,1.6,2.6S36.744,45.662,36.644,45.562z M39.744,44.662
	c-0.2,0.2-0.8,0.3-0.9,0.3s-1.3-2.5-1.4-2.6c-0.1-0.1,1-0.1,1.1,0C38.844,42.562,39.944,44.562,39.744,44.662z M40.544,44.262
	c-0.2-0.1-1-1.8-1.1-1.9c0-0.1,0.9-0.5,1-0.4c0.2,0.1,1,1.6,1,1.6S40.744,44.262,40.544,44.262z M42.144,42.862
	c-0.2-0.1-0.8-1.3-0.9-1.4c0-0.1,0.9-0.7,0.9-0.7s0.8,0.8,0.8,0.9S42.344,42.962,42.144,42.862z M43.444,40.762
	c-0.2,0.1-0.8-0.9-0.8-1s0.1-1.3,0.3-1.3c0.1,0,1.1,1.1,1.2,1.2S43.644,40.762,43.444,40.762z M45.144,26.562
	c-0.2,5.3-0.1,7.9-0.2,9.5c-0.2,1.6-0.5,2.5-0.6,2.5s-1.1-1.4-1.1-1.6s0.1-4.3,0.2-7.5s0.1-8.6,0-9.6s-0.4-1.4-1-1.6
	s-4.9-0.2-7.1-0.2c-2.2,0-2.8,0-3,0.2c-0.1,0.2-0.2,1.2-0.1,1.6s0.4,1.2,0.4,1.3s0.2,5.2-0.9,7.2c-1,2-2,4.1-5.6,5.4
	c-3.6,1.3-5.3,1.6-8.5,0.5s-4.5-3.2-5-4.6c-0.5-1.4-0.8-4.8-0.6-6.9s0.3-2.5,0.7-2.9c0.3-0.4,0.7-0.6,0.6-0.9
	c-0.1-0.3-0.4-0.4-1.5-0.7c-1.1-0.3-4-0.2-5-0.3s-1.7,0.1-2,1c-0.4,1,0.3,9.6,0.5,13.7s0.4,6.3,1.4,7.7s1.8,1.9,3.3,2.1
	c1.5,0.2,4.3,0.6,7.1,0.5c2.9-0.1,9.8-0.3,11.5-0.3s3.8-0.1,3.9-0.1s1.5,3,1.4,3.1s-0.9,0.2-1.1,0.1c-0.1-0.1-1.3-2.7-1.6-2.7
	s-0.8,0.2-0.8,0.4s1.4,2.3,1.3,2.3s-1.3,0.1-1.5,0c-0.1-0.1-1-2.5-1.1-2.5s-0.6,0-0.7,0.2c-0.1,0.1,0.9,2.2,0.8,2.2
	c-0.1,0-0.9,0.1-1-0.1c-0.1-0.1-0.9-2.2-1.1-2.2s-0.6,0.2-0.6,0.3s0.7,2,0.6,2s-1.2,0.1-1.3,0s-0.6-1.7-0.8-1.7s-0.8,0.2-0.7,0.4
	s0.7,1.4,0.5,1.4s-5.7,0.3-10.3,0.1s-6.4,0.2-8.1-0.7s-4-3.2-4.7-5c-0.7-1.7-1-6.4-0.8-9.8s-0.2-8.2,0.1-12.9s-0.1-10.6,3.5-13.1
	c0.8-0.6,2.8-2,4.2-2.4c1.3-0.4,3.5-0.9,3.8-0.6c0.3,0.3,0.6,1.8,0.9,1.8s0.8-0.1,0.7-0.4s-0.7-1.4-0.5-1.4s0.6-0.1,0.8,0
	c0.1,0.1,1.6,1.9,2,3s0.4,1.1,0.6,1.1s0.4-0.2,0.4-0.5c-0.1-0.3-0.6-1.9-1-2.7c-0.5-0.8-0.8-1.2-0.6-1.2s0.6-0.3,0.9,0
	s1.6,2.2,2.1,3.1s0.4,1.2,0.6,1.2s0.5-0.1,0.4-0.6c-0.2-0.5-0.7-1.7-1.2-2.6s-0.8-1.3-0.7-1.3s1.3-0.1,1.5,0.1s1.8,3.4,2.4,4.6
	s0.9,2.2,1.1,2.2s0.4-0.1,0.3-0.3c-0.1-0.2-1.8-3.9-2.2-5.1s-0.6-1.5-0.4-1.5s0.9-0.2,1.1,0c0.2,0.2,1.5,3,2.5,4.9s1.8,3.5,1.9,3.5
	s0.3-0.2,0.2-0.5c-0.2-0.3-2-4.6-2.4-5.4c-0.4-0.8-1.1-2.5-0.9-2.5s1-0.1,1.1,0.1c0.1,0.2,2,3.3,2.8,5.4s1,2.7,1.1,2.7
	s0.2-0.2,0.2-0.3s-1.2-3.5-1.9-5s-1.2-2.6-1-2.6s1.2-0.1,1.3,0.1c0.1,0.2,2.2,4.5,2.7,5.6s0.8,1.8,0.9,1.8s0.3-0.2,0.2-0.6
	c-0.2-0.4-1.7-4.7-2.2-5.6s-0.6-1.3-0.4-1.3s0.8-0.1,0.9,0.2c0.1,0.3,2.9,6.5,3,6.5s0.3-0.1,0.3-0.3s-1.7-4.5-2-5.3
	c-0.3-0.7-0.4-1.1-0.2-1.1s1.2,0,1.2,0.1s1.9,4.3,2.1,4.3s0.3-0.1,0.3-0.4s-1.2-3.1-1.3-3.3c-0.1-0.3-0.3-0.5-0.1-0.6
	c0.2,0,1.4,0.1,1.4,0.1s1,2.1,1.2,2.1s0.7-0.3,0.5-0.7s-0.8-1.6-0.6-1.6s0.8-0.1,0.9,0.1c0.1,0.2,1.2,2.6,1.5,2.6s0.5-0.2,0.5-0.4
	c-0.1-0.2-1.2-2.3-1.1-2.3s1.1-0.1,1.2,0.1c0.2,0.2,1,2.2,1.4,2.2s0.6-0.4,0.5-0.5c-0.1-0.2-0.9-1.7-0.7-1.7s0.5-0.1,0.7,0.2
	s1.5,3.4,1.6,3.4s0.6-0.4,0.5-0.6s-1.2-2.7-1-2.8s0.8,0,1.2,0.6s0.6,1.4,0.8,1.4s0.6-0.3,0.7-0.3s1.8,1.7,1.9,4.8
	S45.344,21.262,45.144,26.562z M9.544,3.962c-0.6,0-2.5,0.7-3.9,1.7s-2.4,3-2.5,3.7s0,2.4,0.1,2.5c0.2,0.2,0.7,0.1,0.9,0
	c0.2-0.1,0.1-0.8,0-1.4c-0.1-0.7,0.4-1.8,1.1-2.7s2.2-2.1,3-2.4c0.8-0.3,1.6-0.4,1.8-0.6S10.144,4.062,9.544,3.962z M32.144,13.562
	c-0.3-0.1-0.1-2-0.2-2.2c-0.1-0.2-1.1-0.3-1.1-0.1c0,0.2-0.2,3,0,3.3s1.9,0.4,2.3,0.4s0.3-0.6,0.2-0.9
	C33.344,13.662,32.444,13.662,32.144,13.562z M38.844,5.262c-0.6-0.1-4.8,0-5.3,0.2s-0.5,1.6-0.4,2.9s0.1,4.1,0.3,4.3
	c0.5,0.6,5.7,0.4,6.4,0.2c0.7-0.2,0.4-4.6,0.3-5.7S39.444,5.362,38.844,5.262z M38.944,11.662c-0.3,0-3.4,0.1-3.6-0.1
	c-0.2-0.2-0.1-3.4,0-3.7c0.1-0.2,3.6-0.3,3.8-0.1S39.244,11.662,38.944,11.662z M19.944,15.962c0.5-0.1,0.3-0.8,0-0.9
	s-1.4,0.2-2.7,1.1c-1.4,0.9-2.3,2.2-2.5,2.8s-0.1,1.4,0.1,1.5c0,0,0.5,0.1,0.8,0.1s0.3-1.5,1.2-2.6
	C17.644,16.762,19.444,16.062,19.944,15.962z M22.444,16.262c-2.8-0.2-4.7,1.7-5.3,2.4c-1.6,2-1.6,6.4-1,8.3s3.8,3.4,5,3.6
	c1.2,0.3,5.8-0.6,7.1-2.8s0.9-5.6,0.2-7.8S25.244,16.562,22.444,16.262z M27.444,27.362c-1.2,1.2-3.3,2.4-5.5,2.3
	c-2.2-0.1-4.2-1.2-3.9-3.7s1.4-3.4,2.5-4.5c0.7-0.7,2.6-1.9,4.1-1.9s2.3-0.1,3,1.5S28.544,26.162,27.444,27.362z"/>
<g>
</g>
<g>
</g>
<g>
</g>
<g>
</g>
<g>
</g>
<g>
</g>
<g>
</g>
<g>
</g>
<g>
</g>
<g>
</g>
<g>
</g>
<g>
</g>
<g>
</g>
<g>
</g>
<g>
</g>
</svg>
