<?xml version="1.0" encoding="iso-8859-1"?>
<!-- Generator: Adobe Illustrator 18.1.1, SVG Export Plug-In . SVG Version: 6.00 Build 0)  -->
<svg version="1.1" id="Capa_1" xmlns="http://www.w3.org/2000/svg" xmlns:xlink="http://www.w3.org/1999/xlink" x="0px" y="0px"
	 viewBox="0 0 49.2 49.2" style="enable-background:new 0 0 49.2 49.2;" xml:space="preserve">
<path id="facebook" d="M39.156,2.4c-0.3-2.1-5.3-2.4-8.2-2.4s-5.9,0.3-9.8,2.4s-5.2,5.7-5.8,7.9c-0.4,2.3,0.2,8.7,0.2,8.9
	s-3,0.2-4.2,0.2c-1.2,0.1-1.4,0.6-1.5,0.9s0.5,8.7,0.5,8.7l0.4,3c0.7,0.4,3.9,0.2,4.4,0.3c0.6,0.1,0.8,0.9,0.8,3
	c0.1,2.1,0.4,10.2,0.4,11.9c0.1,1.7,0.8,1.7,2.6,1.7s8.8,0.3,9.2,0.3s0.8-0.5,0.8-2.1s0.5-14.7,0.6-15c0.1-0.3,1.1,0,2,0
	s5.2-0.3,6-0.4c0.8-0.1,1.1-8,1.1-10.5s-1.7-2.7-2.7-2.7c-1.1-0.1-6.1,0.2-6.4-0.1c-0.3-0.2,1-4.1,2.6-4.9c1.7-0.8,5.8-0.4,6.3-0.3
	s0.9-1.1,0.9-2C39.356,10.2,39.356,4.5,39.156,2.4z M35.556,19.3c0.2,0,0.9,0.8,1.1,1.1s-0.1,0.9-0.2,1c-0.1,0.1-0.9-1.4-1-1.6
	S35.456,19.3,35.556,19.3z M38.156,9.8c-0.5,0.1-4.9-0.4-7.5,0.5c-2.5,0.9-3.9,3.5-4.1,4.9c-0.2,1.4-0.2,4,0.2,4s4,0.1,5.3,0.1
	c1.4,0.1,2.1,0,2.2,0.2c0.1,0.2,2,2.9,2,3.1s-0.2,1.1-0.3,1s-1.9-3.2-2-3.1s-0.5,0.6-0.2,0.9c0.2,0.3,2.1,3.2,2.1,3.3
	c0,0.1-0.3,0.8-0.4,0.6c-0.1-0.2-2.3-3.9-2.4-3.8c-0.1,0.1-0.5,0.5-0.3,0.8s2.5,3.6,2.5,3.7c0,0.2,0,1.5-0.2,1.5
	c-0.2-0.1-2.3-4-2.6-4c-0.4,0-0.5,0.7-0.3,0.9s2.7,3.9,2.7,4c0,0.1-0.6,0.4-0.8,0.3c-0.2-0.2-2.2-4-2.4-4s-0.8,0.3-0.6,0.5
	c0.2,0.3,2.1,3.4,2,3.5c-0.1,0-0.5,0.2-0.8-0.2c-0.3-0.3-1.9-3.1-2.1-3s-0.6,0.5-0.4,0.7c0.2,0.3,2,2.4,1.8,2.5s-1.2,0-1.3-0.1
	s-1.1-2.1-1.3-2.1s-0.5,0.4-0.4,0.6c0.1,0.2,0.9,1.5,0.8,1.5c-0.1,0-2.3-0.1-2.4,0.2c-0.1,0.3,0.1,2.1,0,2.1
	c-0.1-0.1-1.1-2.1-1.3-2.1s-0.4,0.6-0.3,0.8c0.1,0.3,1.7,2.1,1.7,2.3c0.1,0.2,0.1,1.7-0.1,1.5c-0.1-0.2-1.6-2.9-1.7-2.8
	s-0.4,0.7-0.3,0.9s2.1,3,2.1,3.2s0.1,2.1,0,2c-0.1-0.2-2.3-4.2-2.4-4.2c-0.2,0-0.3,0.9-0.2,1.2s2.6,4,2.6,4.2s0.1,1.2-0.1,1.1
	c-0.1-0.1-2.7-4.9-2.9-4.8c-0.1,0.1-0.2,0.8-0.2,1.1c0.1,0.3,3,4.8,3.1,4.9s0,2.1-0.1,2s-3.1-5.3-3.3-5.3c-0.2,0-0.3,0.9-0.2,1.2
	c0.1,0.2,3.5,5,3.5,5.2c0,0.3,0.1,1.5,0,1.4s-3.7-5.9-3.8-5.9c-0.1,0-0.3,0.8-0.3,1c0.1,0.2,4,6.1,4,6.3s0,0.4-0.3,0.4
	c-0.2,0-0.5,0-0.7-0.2s-3.5-5.6-3.7-5.5s-0.3,0.9-0.2,1.2c0.1,0.3,3.5,4.6,3.4,4.6c-0.1,0.1-4.7-0.3-5-0.3c-0.4,0-0.7-0.1-0.7-0.1
	s0.2-0.2-0.3-0.7c-0.4-0.5-1.1-1.2-1.3-1c-0.3,0.2-0.2,0.5,0,0.7s0.9,0.7,0.8,0.8s-1.9,0-2-0.2s-0.1-7.4-0.2-9.9
	c-0.1-2.5-0.2-6.1-0.7-6.5c-0.6-0.4-4.7-0.5-4.9-0.7c-0.2-0.2-0.7-8.2-0.4-8.3c0.3-0.1,4.2,0.1,4.8-0.3c0.7-0.4,0.8-1.1,0.7-2
	c-0.1-0.9-0.7-7.2,0.5-9.6s3.5-4.7,7.1-6.2c3.6-1.4,8-1.3,11.1-0.9c3.1,0.4,3.4,1,3.4,2.4C38.556,5.2,38.556,9.7,38.156,9.8z
	 M17.356,20.1c-0.2,0-0.2,0.8-0.2,1c0,0.3-1.6,0.1-2,0.1s-0.8,0.1-0.7,0.4c0,0.1,0,0.4,0.2,0.5s3.3,0.1,3.6,0.1
	c0.3,0,0.2-1.6,0.2-1.9C18.256,20,17.556,20.1,17.356,20.1z M22.056,5.4c-0.8,0.4-2.3,1.6-3.3,3.2c-0.9,1.5-1.2,2.7-1.2,3.7
	s0.1,1.7,0.3,1.8c0.2,0.1,0.5,0,0.7,0s0-2.9,1.3-5.2s3.3-2.9,3.6-2.9c0.3,0,0.3-0.5,0.2-0.9C23.656,4.7,22.856,5,22.056,5.4z
	 M28.056,10.2c-0.2-0.1-1.1,0.2-1.5,0.7c-0.5,0.5-1.3,1.9-1.5,2.4s-0.1,1.2,0.2,1.3c0.3,0.1,0.5,0,0.7-0.1s0.2-1.1,0.6-2
	c0.4-0.9,1.6-1.4,1.8-1.5C28.456,10.9,28.256,10.3,28.056,10.2z M33.956,2.2c-0.4-0.1-0.7,0.8-0.4,0.9c0.2,0.1,1.8,0.3,2.2,0.4
	c0.4,0.1,0.7,0,0.8,0.3s0,2.8,0.2,2.9s0.9,0.4,0.9-0.3s0.1-3.4-0.2-3.6C37.056,2.6,34.456,2.3,33.956,2.2z M19.556,42.8
	c-0.3,0.1-0.4,0.3-0.1,0.8s1.9,2.4,2.2,2.4c0.3,0,0.6-0.3,0.4-0.6C21.756,45,19.856,42.7,19.556,42.8z M21.256,42
	c-0.1-0.1-0.6,0.4-0.5,0.6c0,0,2.1,2.7,2.4,3.1c0.3,0.4,0.6,0.5,0.8,0.3c0.3-0.2-0.1-0.6-0.3-1C23.556,44.6,21.356,42,21.256,42z"/>
<g>
</g>
<g>
</g>
<g>
</g>
<g>
</g>
<g>
</g>
<g>
</g>
<g>
</g>
<g>
</g>
<g>
</g>
<g>
</g>
<g>
</g>
<g>
</g>
<g>
</g>
<g>
</g>
<g>
</g>
</svg>
